<?xml version="1.0" encoding="utf-8"?>
<!-- Generator: Adobe Illustrator 21.0.0, SVG Export Plug-In . SVG Version: 6.00 Build 0)  -->
<svg version="1.1" id="Layer_1" xmlns="http://www.w3.org/2000/svg" xmlns:xlink="http://www.w3.org/1999/xlink" x="0px" y="0px"
	 viewBox="0 0 176 100" style="enable-background:new 0 0 176 100;" xml:space="preserve">
<style type="text/css">
	.st0{fill:#2EA5DD;}
	.st1{fill:url(#SVGID_1_);}
	.st2{fill:url(#SVGID_2_);}
	.st3{fill:url(#SVGID_3_);}
</style>
<title>JULO Logo</title>
<path class="st0" d="M34.2,66.4L34.2,66.4L34.2,66.4z"/>
<rect x="19.2" y="24.9" class="st0" width="0.9" height="0.9"/>
<rect x="22.6" y="26.1" class="st0" width="0.9" height="0.9"/>
<rect x="26.1" y="27.4" class="st0" width="0.9" height="0.9"/>
<rect x="29.6" y="28.7" class="st0" width="0.9" height="0.9"/>
<rect x="33.2" y="30" class="st0" width="0.9" height="0.9"/>
<rect x="36.6" y="31.3" class="st0" width="0.9" height="0.9"/>
<rect x="39.9" y="32.5" class="st0" width="0.9" height="0.9"/>
<rect x="43" y="33.6" class="st0" width="0.9" height="0.9"/>
<rect x="45.9" y="34.5" class="st0" width="0.9" height="0.9"/>
<rect x="22.9" y="28.2" class="st0" width="0.9" height="0.9"/>
<rect x="25.9" y="29.2" class="st0" width="0.9" height="0.9"/>
<rect x="29" y="30.3" class="st0" width="0.9" height="0.9"/>
<rect x="32.2" y="31.4" class="st0" width="0.9" height="0.9"/>
<rect x="35.3" y="32.5" class="st0" width="0.9" height="0.9"/>
<rect x="38.4" y="33.5" class="st0" width="0.9" height="0.9"/>
<rect x="41.4" y="34.5" class="st0" width="0.9" height="0.9"/>
<rect x="44.3" y="35.5" class="st0" width="0.9" height="0.9"/>
<rect x="47" y="36.3" class="st0" width="0.9" height="0.9"/>
<rect x="26.2" y="31.2" class="st0" width="0.9" height="0.9"/>
<rect x="28.9" y="32.1" class="st0" width="0.9" height="0.9"/>
<rect x="31.7" y="33" class="st0" width="0.9" height="0.9"/>
<rect x="34.5" y="33.9" class="st0" width="0.9" height="0.9"/>
<rect x="37.4" y="34.8" class="st0" width="0.9" height="0.9"/>
<rect x="40.2" y="35.7" class="st0" width="0.9" height="0.9"/>
<rect x="42.9" y="36.6" class="st0" width="0.9" height="0.9"/>
<rect x="45.6" y="37.4" class="st0" width="0.9" height="0.9"/>
<rect x="48.1" y="38.1" class="st0" width="0.9" height="0.9"/>
<rect x="29.1" y="34.1" class="st0" width="0.9" height="0.9"/>
<rect x="31.5" y="34.8" class="st0" width="0.9" height="0.9"/>
<rect x="34.1" y="35.5" class="st0" width="0.9" height="0.9"/>
<rect x="36.6" y="36.3" class="st0" width="0.9" height="0.9"/>
<rect x="39.2" y="37" class="st0" width="0.9" height="0.9"/>
<rect x="41.8" y="37.8" class="st0" width="0.9" height="0.9"/>
<rect x="44.3" y="38.5" class="st0" width="0.9" height="0.9"/>
<rect x="46.7" y="39.2" class="st0" width="0.9" height="0.9"/>
<rect x="49" y="39.8" class="st0" width="0.9" height="0.9"/>
<rect x="31.7" y="36.8" class="st0" width="0.9" height="0.9"/>
<rect x="33.9" y="37.3" class="st0" width="0.9" height="0.9"/>
<rect x="36.2" y="37.9" class="st0" width="0.9" height="0.9"/>
<rect x="38.6" y="38.5" class="st0" width="0.9" height="0.9"/>
<rect x="40.9" y="39.2" class="st0" width="0.9" height="0.9"/>
<rect x="43.2" y="39.8" class="st0" width="0.9" height="0.9"/>
<rect x="45.5" y="40.4" class="st0" width="0.9" height="0.9"/>
<rect x="47.8" y="41" class="st0" width="0.9" height="0.9"/>
<rect x="49.9" y="41.5" class="st0" width="0.9" height="0.9"/>
<rect x="34" y="39.2" class="st0" width="0.9" height="0.9"/>
<rect x="36" y="39.7" class="st0" width="0.9" height="0.9"/>
<rect x="38.1" y="40.2" class="st0" width="0.9" height="0.9"/>
<rect x="40.2" y="40.7" class="st0" width="0.9" height="0.9"/>
<rect x="42.4" y="41.2" class="st0" width="0.9" height="0.9"/>
<rect x="44.5" y="41.7" class="st0" width="0.9" height="0.9"/>
<rect x="46.7" y="42.2" class="st0" width="0.9" height="0.9"/>
<rect x="48.7" y="42.7" class="st0" width="0.9" height="0.9"/>
<rect x="50.7" y="43.1" class="st0" width="0.9" height="0.9"/>
<rect x="36" y="41.5" class="st0" width="0.9" height="0.9"/>
<rect x="37.8" y="41.9" class="st0" width="0.9" height="0.9"/>
<rect x="39.8" y="42.3" class="st0" width="0.9" height="0.9"/>
<rect x="41.7" y="42.7" class="st0" width="0.9" height="0.9"/>
<rect x="43.7" y="43.1" class="st0" width="0.9" height="0.9"/>
<rect x="45.7" y="43.6" class="st0" width="0.9" height="0.9"/>
<rect x="47.6" y="44" class="st0" width="0.9" height="0.9"/>
<rect x="49.6" y="44.4" class="st0" width="0.9" height="0.9"/>
<rect x="51.4" y="44.7" class="st0" width="0.9" height="0.9"/>
<rect x="37.6" y="43.7" class="st0" width="0.9" height="0.9"/>
<rect x="39.4" y="44" class="st0" width="0.9" height="0.9"/>
<rect x="41.2" y="44.3" class="st0" width="0.9" height="0.9"/>
<rect x="43" y="44.6" class="st0" width="0.9" height="0.9"/>
<rect x="44.8" y="45" class="st0" width="0.9" height="0.9"/>
<rect x="46.7" y="45.3" class="st0" width="0.9" height="0.9"/>
<rect x="48.5" y="45.6" class="st0" width="0.9" height="0.9"/>
<rect x="50.3" y="46" class="st0" width="0.9" height="0.9"/>
<rect x="52" y="46.2" class="st0" width="0.9" height="0.9"/>
<rect x="39.1" y="45.7" class="st0" width="0.9" height="0.9"/>
<rect x="40.7" y="45.9" class="st0" width="0.9" height="0.9"/>
<rect x="42.4" y="46.2" class="st0" width="0.9" height="0.9"/>
<rect x="44.1" y="46.4" class="st0" width="0.9" height="0.9"/>
<rect x="45.8" y="46.7" class="st0" width="0.9" height="0.9"/>
<rect x="47.5" y="47" class="st0" width="0.9" height="0.9"/>
<rect x="49.2" y="47.2" class="st0" width="0.9" height="0.9"/>
<rect x="50.9" y="47.5" class="st0" width="0.9" height="0.9"/>
<rect x="52.6" y="47.7" class="st0" width="0.9" height="0.9"/>
<rect x="40.3" y="47.5" class="st0" width="0.9" height="0.9"/>
<rect x="41.8" y="47.7" class="st0" width="0.9" height="0.9"/>
<rect x="43.4" y="47.9" class="st0" width="0.9" height="0.9"/>
<rect x="45" y="48.1" class="st0" width="0.9" height="0.9"/>
<rect x="46.6" y="48.3" class="st0" width="0.9" height="0.9"/>
<rect x="48.3" y="48.6" class="st0" width="0.9" height="0.9"/>
<rect x="49.9" y="48.8" class="st0" width="0.9" height="0.9"/>
<rect x="51.4" y="49" class="st0" width="0.9" height="0.9"/>
<rect x="53" y="49.2" class="st0" width="0.9" height="0.9"/>
<rect x="41.2" y="49.3" class="st0" width="0.9" height="0.9"/>
<rect x="42.7" y="49.4" class="st0" width="0.9" height="0.9"/>
<rect x="44.2" y="49.6" class="st0" width="0.9" height="0.9"/>
<rect x="45.8" y="49.7" class="st0" width="0.9" height="0.9"/>
<rect x="47.3" y="49.9" class="st0" width="0.9" height="0.9"/>
<rect x="48.8" y="50.1" class="st0" width="0.9" height="0.9"/>
<rect x="50.4" y="50.2" class="st0" width="0.9" height="0.9"/>
<rect x="51.9" y="50.4" class="st0" width="0.9" height="0.9"/>
<rect x="53.4" y="50.5" class="st0" width="0.9" height="0.9"/>
<rect x="42.1" y="50.9" class="st0" width="0.9" height="0.9"/>
<rect x="43.5" y="51" class="st0" width="0.9" height="0.9"/>
<rect x="44.9" y="51.1" class="st0" width="0.9" height="0.9"/>
<rect x="46.4" y="51.3" class="st0" width="0.9" height="0.9"/>
<rect x="47.9" y="51.4" class="st0" width="0.9" height="0.9"/>
<rect x="49.3" y="51.5" class="st0" width="0.9" height="0.9"/>
<rect x="50.8" y="51.7" class="st0" width="0.9" height="0.9"/>
<rect x="52.2" y="51.8" class="st0" width="0.9" height="0.9"/>
<rect x="53.7" y="51.9" class="st0" width="0.9" height="0.9"/>
<rect x="42.7" y="52.5" class="st0" width="0.9" height="0.9"/>
<rect x="44.1" y="52.5" class="st0" width="0.9" height="0.9"/>
<rect x="45.5" y="52.6" class="st0" width="0.9" height="0.9"/>
<rect x="46.9" y="52.7" class="st0" width="0.9" height="0.9"/>
<rect x="48.3" y="52.8" class="st0" width="0.9" height="0.9"/>
<rect x="49.7" y="52.9" class="st0" width="0.9" height="0.9"/>
<rect x="51.1" y="53" class="st0" width="0.9" height="0.9"/>
<rect x="52.5" y="53.1" class="st0" width="0.9" height="0.9"/>
<rect x="53.9" y="53.2" class="st0" width="0.9" height="0.9"/>
<rect x="43.2" y="53.9" class="st0" width="0.9" height="0.9"/>
<rect x="44.6" y="54" class="st0" width="0.9" height="0.9"/>
<rect x="45.9" y="54.1" class="st0" width="0.9" height="0.9"/>
<rect x="47.3" y="54.1" class="st0" width="0.9" height="0.9"/>
<rect x="48.6" y="54.2" class="st0" width="0.9" height="0.9"/>
<rect x="50" y="54.3" class="st0" width="0.9" height="0.9"/>
<rect x="51.4" y="54.3" class="st0" width="0.9" height="0.9"/>
<rect x="52.7" y="54.4" class="st0" width="0.9" height="0.9"/>
<rect x="54.1" y="54.5" class="st0" width="0.9" height="0.9"/>
<rect x="43.6" y="55.3" class="st0" width="0.9" height="0.9"/>
<rect x="44.9" y="55.4" class="st0" width="0.9" height="0.9"/>
<rect x="46.2" y="55.4" class="st0" width="0.9" height="0.9"/>
<rect x="47.6" y="55.5" class="st0" width="0.9" height="0.9"/>
<rect x="48.9" y="55.5" class="st0" width="0.9" height="0.9"/>
<rect x="50.2" y="55.6" class="st0" width="0.9" height="0.9"/>
<rect x="51.6" y="55.6" class="st0" width="0.9" height="0.9"/>
<rect x="52.9" y="55.7" class="st0" width="0.9" height="0.9"/>
<rect x="54.2" y="55.7" class="st0" width="0.9" height="0.9"/>
<rect x="43.9" y="56.7" class="st0" width="0.9" height="0.9"/>
<rect x="45.2" y="56.7" class="st0" width="0.9" height="0.9"/>
<rect x="46.5" y="56.7" class="st0" width="0.9" height="0.9"/>
<rect x="47.8" y="56.8" class="st0" width="0.9" height="0.9"/>
<rect x="49.1" y="56.8" class="st0" width="0.9" height="0.9"/>
<rect x="50.4" y="56.8" class="st0" width="0.9" height="0.9"/>
<rect x="51.7" y="56.9" class="st0" width="0.9" height="0.9"/>
<rect x="53" y="56.9" class="st0" width="0.9" height="0.9"/>
<rect x="54.3" y="56.9" class="st0" width="0.9" height="0.9"/>
<rect x="44.1" y="58" class="st0" width="0.9" height="0.9"/>
<rect x="45.4" y="58" class="st0" width="0.9" height="0.9"/>
<rect x="46.7" y="58" class="st0" width="0.9" height="0.9"/>
<rect x="48" y="58" class="st0" width="0.9" height="0.9"/>
<rect x="49.2" y="58.1" class="st0" width="0.9" height="0.9"/>
<rect x="50.5" y="58.1" class="st0" width="0.9" height="0.9"/>
<rect x="51.8" y="58.1" class="st0" width="0.9" height="0.9"/>
<rect x="53.1" y="58.1" class="st0" width="0.9" height="0.9"/>
<rect x="54.3" y="58.1" class="st0" width="0.9" height="0.9"/>
<rect x="44.3" y="59.2" class="st0" width="0.9" height="0.9"/>
<rect x="45.5" y="59.2" class="st0" width="0.9" height="0.9"/>
<rect x="46.8" y="59.2" class="st0" width="0.9" height="0.9"/>
<rect x="48.1" y="59.3" class="st0" width="0.9" height="0.9"/>
<rect x="49.3" y="59.3" class="st0" width="0.9" height="0.9"/>
<rect x="50.6" y="59.3" class="st0" width="0.9" height="0.9"/>
<rect x="51.9" y="59.3" class="st0" width="0.9" height="0.9"/>
<rect x="53.1" y="59.3" class="st0" width="0.9" height="0.9"/>
<rect x="54.4" y="59.3" class="st0" width="0.9" height="0.9"/>
<rect x="44.4" y="60.5" class="st0" width="0.9" height="0.9"/>
<rect x="45.6" y="60.5" class="st0" width="0.9" height="0.9"/>
<rect x="46.9" y="60.5" class="st0" width="0.9" height="0.9"/>
<rect x="48.1" y="60.5" class="st0" width="0.9" height="0.9"/>
<rect x="49.4" y="60.5" class="st0" width="0.9" height="0.9"/>
<rect x="50.6" y="60.5" class="st0" width="0.9" height="0.9"/>
<rect x="51.9" y="60.5" class="st0" width="0.9" height="0.9"/>
<rect x="53.1" y="60.5" class="st0" width="0.9" height="0.9"/>
<rect x="54.4" y="60.5" class="st0" width="0.9" height="0.9"/>
<rect x="44.4" y="61.7" class="st0" width="0.9" height="0.9"/>
<rect x="45.7" y="61.7" class="st0" width="0.9" height="0.9"/>
<rect x="46.9" y="61.7" class="st0" width="0.9" height="0.9"/>
<rect x="48.2" y="61.7" class="st0" width="0.9" height="0.9"/>
<rect x="49.4" y="61.7" class="st0" width="0.9" height="0.9"/>
<rect x="50.7" y="61.7" class="st0" width="0.9" height="0.9"/>
<rect x="51.9" y="61.7" class="st0" width="0.9" height="0.9"/>
<rect x="53.2" y="61.7" class="st0" width="0.9" height="0.9"/>
<rect x="54.4" y="61.7" class="st0" width="0.9" height="0.9"/>
<rect x="44.5" y="62.9" class="st0" width="0.9" height="0.9"/>
<rect x="45.7" y="62.9" class="st0" width="0.9" height="0.9"/>
<rect x="47" y="62.9" class="st0" width="0.9" height="0.9"/>
<rect x="48.2" y="62.9" class="st0" width="0.9" height="0.9"/>
<rect x="49.4" y="62.9" class="st0" width="0.9" height="0.9"/>
<rect x="50.7" y="62.9" class="st0" width="0.9" height="0.9"/>
<rect x="51.9" y="62.9" class="st0" width="0.9" height="0.9"/>
<rect x="53.2" y="62.9" class="st0" width="0.9" height="0.9"/>
<rect x="54.4" y="62.9" class="st0" width="0.9" height="0.9"/>
<rect x="44.5" y="64" class="st0" width="0.9" height="0.9"/>
<rect x="45.7" y="64.1" class="st0" width="0.9" height="0.9"/>
<rect x="47" y="64.1" class="st0" width="0.9" height="0.9"/>
<rect x="48.2" y="64.1" class="st0" width="0.9" height="0.9"/>
<rect x="49.4" y="64.1" class="st0" width="0.9" height="0.9"/>
<rect x="50.7" y="64.1" class="st0" width="0.9" height="0.9"/>
<rect x="51.9" y="64.1" class="st0" width="0.9" height="0.9"/>
<rect x="53.2" y="64.1" class="st0" width="0.9" height="0.9"/>
<rect x="54.4" y="64.1" class="st0" width="0.9" height="0.9"/>
<rect x="44.5" y="65.2" class="st0" width="0.9" height="0.9"/>
<rect x="45.7" y="65.2" class="st0" width="0.9" height="0.9"/>
<rect x="47" y="65.2" class="st0" width="0.9" height="0.9"/>
<rect x="48.2" y="65.2" class="st0" width="0.9" height="0.9"/>
<rect x="49.4" y="65.2" class="st0" width="0.9" height="0.9"/>
<rect x="50.7" y="65.2" class="st0" width="0.9" height="0.9"/>
<rect x="51.9" y="65.2" class="st0" width="0.9" height="0.9"/>
<rect x="53.2" y="65.2" class="st0" width="0.9" height="0.9"/>
<rect x="54.4" y="65.2" class="st0" width="0.9" height="0.9"/>
<polygon class="st0" points="31.8,67.2 31.3,67.3 31.8,67.3 "/>
<polygon class="st0" points="33,67.3 33,66.8 32.1,67.1 32.1,67.3 "/>
<path class="st0" d="M34.2,67.3c0-0.4-0.1-0.8-0.2-0.8c-0.3,0-0.5,0.1-0.7,0.2v0.7L34.2,67.3z"/>
<rect x="44.5" y="66.4" class="st0" width="0.9" height="0.9"/>
<rect x="45.7" y="66.4" class="st0" width="0.9" height="0.9"/>
<rect x="47" y="66.4" class="st0" width="0.9" height="0.9"/>
<rect x="48.2" y="66.4" class="st0" width="0.9" height="0.9"/>
<rect x="49.4" y="66.4" class="st0" width="0.9" height="0.9"/>
<rect x="50.7" y="66.4" class="st0" width="0.9" height="0.9"/>
<rect x="51.9" y="66.4" class="st0" width="0.9" height="0.9"/>
<rect x="53.2" y="66.4" class="st0" width="0.9" height="0.9"/>
<rect x="54.4" y="66.4" class="st0" width="0.9" height="0.9"/>
<polygon class="st0" points="28,68.4 27.8,68.5 28,68.5 "/>
<polygon class="st0" points="29.3,68.5 29.3,68 28.4,68.3 28.4,68.5 "/>
<polygon class="st0" points="30.5,68.5 30.5,67.6 29.6,67.9 29.6,68.5 "/>
<rect x="30.8" y="67.6" class="st0" width="0.9" height="0.9"/>
<rect x="32.1" y="67.6" class="st0" width="0.9" height="0.9"/>
<rect x="33.3" y="67.6" class="st0" width="0.9" height="0.9"/>
<path class="st0" d="M34.6,68.5l-0.1-0.2L34.6,68.5L34.6,68.5z"/>
<path class="st0" d="M44.2,68c0,0.2,0,0.3-0.1,0.5h0.1V68z"/>
<rect x="44.5" y="67.6" class="st0" width="0.9" height="0.9"/>
<rect x="45.7" y="67.6" class="st0" width="0.9" height="0.9"/>
<rect x="47" y="67.6" class="st0" width="0.9" height="0.9"/>
<rect x="48.2" y="67.6" class="st0" width="0.9" height="0.9"/>
<rect x="49.4" y="67.6" class="st0" width="0.9" height="0.9"/>
<rect x="50.7" y="67.6" class="st0" width="0.9" height="0.9"/>
<rect x="51.9" y="67.6" class="st0" width="0.9" height="0.9"/>
<rect x="53.2" y="67.6" class="st0" width="0.9" height="0.9"/>
<rect x="54.4" y="67.6" class="st0" width="0.9" height="0.9"/>
<polygon class="st0" points="24.3,69.6 24.2,69.7 24.3,69.7 "/>
<polygon class="st0" points="25.6,69.7 25.6,69.2 24.6,69.5 24.6,69.7 "/>
<polygon class="st0" points="26.8,69.7 26.8,68.8 25.9,69.1 25.9,69.7 "/>
<rect x="27.1" y="68.8" class="st0" width="0.9" height="0.9"/>
<rect x="28.4" y="68.8" class="st0" width="0.9" height="0.9"/>
<rect x="29.6" y="68.8" class="st0" width="0.9" height="0.9"/>
<rect x="30.8" y="68.8" class="st0" width="0.9" height="0.9"/>
<rect x="32.1" y="68.8" class="st0" width="0.9" height="0.9"/>
<rect x="33.3" y="68.8" class="st0" width="0.9" height="0.9"/>
<path class="st0" d="M34.6,69.7h0.6c-0.2-0.3-0.3-0.6-0.4-0.9h-0.2L34.6,69.7z"/>
<path class="st0" d="M44.2,68.8H44c-0.1,0.3-0.1,0.6-0.2,0.9h0.4L44.2,68.8z"/>
<rect x="44.5" y="68.8" class="st0" width="0.9" height="0.9"/>
<rect x="45.7" y="68.8" class="st0" width="0.9" height="0.9"/>
<rect x="47" y="68.8" class="st0" width="0.9" height="0.9"/>
<rect x="48.2" y="68.8" class="st0" width="0.9" height="0.9"/>
<rect x="49.4" y="68.8" class="st0" width="0.9" height="0.9"/>
<rect x="50.7" y="68.8" class="st0" width="0.9" height="0.9"/>
<rect x="51.9" y="68.8" class="st0" width="0.9" height="0.9"/>
<rect x="53.2" y="68.8" class="st0" width="0.9" height="0.9"/>
<path class="st0" d="M54.4,68.8v0.9h0.8c0-0.3,0.1-0.6,0.1-0.9H54.4z"/>
<path class="st0" d="M24.3,70h-0.7c-0.1,0-0.2,0.1-0.2,0.2c0,0,0,0,0,0c0,0.2,0.1,0.5,0.1,0.7h0.7L24.3,70z"/>
<rect x="24.6" y="69.9" class="st0" width="0.9" height="0.9"/>
<rect x="25.9" y="69.9" class="st0" width="0.9" height="0.9"/>
<rect x="27.1" y="69.9" class="st0" width="0.9" height="0.9"/>
<rect x="28.4" y="69.9" class="st0" width="0.9" height="0.9"/>
<rect x="29.6" y="69.9" class="st0" width="0.9" height="0.9"/>
<rect x="30.8" y="69.9" class="st0" width="0.9" height="0.9"/>
<rect x="32.1" y="69.9" class="st0" width="0.9" height="0.9"/>
<rect x="33.3" y="69.9" class="st0" width="0.9" height="0.9"/>
<path class="st0" d="M34.6,70.8h0.9v-0.7L35.3,70h-0.8V70.8z"/>
<path class="st0" d="M36.1,70.8l-0.2-0.3v0.3L36.1,70.8z"/>
<path class="st0" d="M44.2,70.8V70h-0.5c-0.1,0.3-0.3,0.6-0.4,0.8v0.1L44.2,70.8z"/>
<rect x="44.5" y="69.9" class="st0" width="0.9" height="0.9"/>
<rect x="45.7" y="69.9" class="st0" width="0.9" height="0.9"/>
<rect x="47" y="69.9" class="st0" width="0.9" height="0.9"/>
<rect x="48.2" y="69.9" class="st0" width="0.9" height="0.9"/>
<rect x="49.4" y="69.9" class="st0" width="0.9" height="0.9"/>
<rect x="50.7" y="69.9" class="st0" width="0.9" height="0.9"/>
<rect x="51.9" y="69.9" class="st0" width="0.9" height="0.9"/>
<rect x="53.2" y="69.9" class="st0" width="0.9" height="0.9"/>
<path class="st0" d="M54.4,70.8h0.7c0.1-0.3,0.1-0.6,0.1-0.9h-0.8V70.8z"/>
<path class="st0" d="M24.3,71.1h-0.7c0.1,0.3,0.1,0.6,0.2,0.9h0.5L24.3,71.1z"/>
<rect x="24.6" y="71.1" class="st0" width="0.9" height="0.9"/>
<rect x="25.9" y="71.1" class="st0" width="0.9" height="0.9"/>
<rect x="27.1" y="71.1" class="st0" width="0.9" height="0.9"/>
<rect x="28.4" y="71.1" class="st0" width="0.9" height="0.9"/>
<rect x="29.6" y="71.1" class="st0" width="0.9" height="0.9"/>
<rect x="30.8" y="71.1" class="st0" width="0.9" height="0.9"/>
<rect x="32.1" y="71.1" class="st0" width="0.9" height="0.9"/>
<rect x="33.3" y="71.1" class="st0" width="0.9" height="0.9"/>
<rect x="34.6" y="71.1" class="st0" width="0.9" height="0.9"/>
<path class="st0" d="M35.8,72h0.9v-0.6c-0.1-0.1-0.3-0.2-0.4-0.3h-0.5V72z"/>
<path class="st0" d="M37.8,72c-0.3-0.1-0.6-0.2-0.8-0.4V72H37.8z"/>
<path class="st0" d="M41.7,72L41.5,72L41.7,72L41.7,72z"/>
<path class="st0" d="M42.9,72v-0.9c-0.3,0.3-0.6,0.5-0.9,0.7V72H42.9z"/>
<rect x="43.2" y="71.1" class="st0" width="0.9" height="0.9"/>
<rect x="44.5" y="71.1" class="st0" width="0.9" height="0.9"/>
<rect x="45.7" y="71.1" class="st0" width="0.9" height="0.9"/>
<rect x="47" y="71.1" class="st0" width="0.9" height="0.9"/>
<rect x="48.2" y="71.1" class="st0" width="0.9" height="0.9"/>
<rect x="49.4" y="71.1" class="st0" width="0.9" height="0.9"/>
<rect x="50.7" y="71.1" class="st0" width="0.9" height="0.9"/>
<rect x="51.9" y="71.1" class="st0" width="0.9" height="0.9"/>
<rect x="53.2" y="71.1" class="st0" width="0.9" height="0.9"/>
<path class="st0" d="M54.4,72h0.4c0.1-0.3,0.2-0.6,0.2-0.9h-0.6L54.4,72z"/>
<path class="st0" d="M24.3,72.3h-0.4c0.1,0.3,0.2,0.6,0.3,0.9h0.1L24.3,72.3z"/>
<rect x="24.6" y="72.3" class="st0" width="0.9" height="0.9"/>
<rect x="25.9" y="72.3" class="st0" width="0.9" height="0.9"/>
<rect x="27.1" y="72.3" class="st0" width="0.9" height="0.9"/>
<rect x="28.4" y="72.3" class="st0" width="0.9" height="0.9"/>
<rect x="29.6" y="72.3" class="st0" width="0.9" height="0.9"/>
<rect x="30.8" y="72.3" class="st0" width="0.9" height="0.9"/>
<rect x="32.1" y="72.3" class="st0" width="0.9" height="0.9"/>
<rect x="33.3" y="72.3" class="st0" width="0.9" height="0.9"/>
<rect x="34.6" y="72.3" class="st0" width="0.9" height="0.9"/>
<rect x="35.8" y="72.3" class="st0" width="0.9" height="0.9"/>
<rect x="37" y="72.3" class="st0" width="0.9" height="0.9"/>
<path class="st0" d="M38.3,73.2h0.9v-0.9h-0.9V73.2z"/>
<path class="st0" d="M40.4,73.2v-0.9h-0.9v0.9L40.4,73.2z"/>
<rect x="40.8" y="72.3" class="st0" width="0.9" height="0.9"/>
<rect x="42" y="72.3" class="st0" width="0.9" height="0.9"/>
<rect x="43.2" y="72.3" class="st0" width="0.9" height="0.9"/>
<rect x="44.5" y="72.3" class="st0" width="0.9" height="0.9"/>
<rect x="45.7" y="72.3" class="st0" width="0.9" height="0.9"/>
<rect x="47" y="72.3" class="st0" width="0.9" height="0.9"/>
<rect x="48.2" y="72.3" class="st0" width="0.9" height="0.9"/>
<rect x="49.4" y="72.3" class="st0" width="0.9" height="0.9"/>
<rect x="50.7" y="72.3" class="st0" width="0.9" height="0.9"/>
<rect x="51.9" y="72.3" class="st0" width="0.9" height="0.9"/>
<rect x="53.2" y="72.3" class="st0" width="0.9" height="0.9"/>
<path class="st0" d="M54.4,73.2L54.4,73.2c0.1-0.3,0.2-0.6,0.3-0.9h-0.3L54.4,73.2z"/>
<path class="st0" d="M24.3,73.4l0,0.2L24.3,73.4L24.3,73.4z"/>
<rect x="24.6" y="73.4" class="st0" width="0.9" height="0.9"/>
<rect x="25.9" y="73.4" class="st0" width="0.9" height="0.9"/>
<rect x="27.1" y="73.4" class="st0" width="0.9" height="0.9"/>
<rect x="28.4" y="73.4" class="st0" width="0.9" height="0.9"/>
<rect x="29.6" y="73.4" class="st0" width="0.9" height="0.9"/>
<rect x="30.8" y="73.4" class="st0" width="0.9" height="0.9"/>
<rect x="32.1" y="73.4" class="st0" width="0.9" height="0.9"/>
<rect x="33.3" y="73.4" class="st0" width="0.9" height="0.9"/>
<rect x="34.6" y="73.4" class="st0" width="0.9" height="0.9"/>
<rect x="35.8" y="73.4" class="st0" width="0.9" height="0.9"/>
<rect x="37" y="73.4" class="st0" width="0.9" height="0.9"/>
<rect x="38.3" y="73.4" class="st0" width="0.9" height="0.9"/>
<rect x="39.5" y="73.4" class="st0" width="0.9" height="0.9"/>
<rect x="40.8" y="73.4" class="st0" width="0.9" height="0.9"/>
<rect x="42" y="73.4" class="st0" width="0.9" height="0.9"/>
<rect x="43.2" y="73.4" class="st0" width="0.9" height="0.9"/>
<rect x="44.5" y="73.4" class="st0" width="0.9" height="0.9"/>
<rect x="45.7" y="73.4" class="st0" width="0.9" height="0.9"/>
<rect x="47" y="73.4" class="st0" width="0.9" height="0.9"/>
<rect x="48.2" y="73.4" class="st0" width="0.9" height="0.9"/>
<rect x="49.4" y="73.4" class="st0" width="0.9" height="0.9"/>
<rect x="50.7" y="73.4" class="st0" width="0.9" height="0.9"/>
<rect x="51.9" y="73.4" class="st0" width="0.9" height="0.9"/>
<path class="st0" d="M53.2,73.4v0.9h0.8l0.1-0.3v-0.6L53.2,73.4z"/>
<path class="st0" d="M25.6,74.6h-0.9c0.1,0.3,0.3,0.6,0.4,0.9h0.5L25.6,74.6z"/>
<rect x="25.9" y="74.6" class="st0" width="0.9" height="0.9"/>
<rect x="27.1" y="74.6" class="st0" width="0.9" height="0.9"/>
<rect x="28.4" y="74.6" class="st0" width="0.9" height="0.9"/>
<rect x="29.6" y="74.6" class="st0" width="0.9" height="0.9"/>
<rect x="30.8" y="74.6" class="st0" width="0.9" height="0.9"/>
<rect x="32.1" y="74.6" class="st0" width="0.9" height="0.9"/>
<rect x="33.3" y="74.6" class="st0" width="0.9" height="0.9"/>
<rect x="34.6" y="74.6" class="st0" width="0.9" height="0.9"/>
<rect x="35.8" y="74.6" class="st0" width="0.9" height="0.9"/>
<rect x="37" y="74.6" class="st0" width="0.9" height="0.9"/>
<rect x="38.3" y="74.6" class="st0" width="0.9" height="0.9"/>
<rect x="39.5" y="74.6" class="st0" width="0.9" height="0.9"/>
<rect x="40.8" y="74.6" class="st0" width="0.9" height="0.9"/>
<rect x="42" y="74.6" class="st0" width="0.9" height="0.9"/>
<rect x="43.2" y="74.6" class="st0" width="0.9" height="0.9"/>
<rect x="44.5" y="74.6" class="st0" width="0.9" height="0.9"/>
<rect x="45.7" y="74.6" class="st0" width="0.9" height="0.9"/>
<rect x="47" y="74.6" class="st0" width="0.9" height="0.9"/>
<rect x="48.2" y="74.6" class="st0" width="0.9" height="0.9"/>
<rect x="49.4" y="74.6" class="st0" width="0.9" height="0.9"/>
<rect x="50.7" y="74.6" class="st0" width="0.9" height="0.9"/>
<rect x="51.9" y="74.6" class="st0" width="0.9" height="0.9"/>
<path class="st0" d="M53.2,75.5h0.2c0.2-0.3,0.3-0.6,0.5-0.9h-0.7V75.5z"/>
<path class="st0" d="M25.2,75.8c0.1,0.2,0.2,0.4,0.3,0.6v-0.6H25.2z"/>
<rect x="25.9" y="75.8" class="st0" width="0.9" height="0.9"/>
<rect x="27.1" y="75.8" class="st0" width="0.9" height="0.9"/>
<rect x="28.4" y="75.8" class="st0" width="0.9" height="0.9"/>
<rect x="29.6" y="75.8" class="st0" width="0.9" height="0.9"/>
<rect x="30.8" y="75.8" class="st0" width="0.9" height="0.9"/>
<rect x="32.1" y="75.8" class="st0" width="0.9" height="0.9"/>
<rect x="33.3" y="75.8" class="st0" width="0.9" height="0.9"/>
<rect x="34.6" y="75.8" class="st0" width="0.9" height="0.9"/>
<rect x="35.8" y="75.8" class="st0" width="0.9" height="0.9"/>
<rect x="37" y="75.8" class="st0" width="0.9" height="0.9"/>
<rect x="38.3" y="75.8" class="st0" width="0.9" height="0.9"/>
<rect x="39.5" y="75.8" class="st0" width="0.9" height="0.9"/>
<rect x="40.8" y="75.8" class="st0" width="0.9" height="0.9"/>
<rect x="42" y="75.8" class="st0" width="0.9" height="0.9"/>
<rect x="43.2" y="75.8" class="st0" width="0.9" height="0.9"/>
<rect x="44.5" y="75.8" class="st0" width="0.9" height="0.9"/>
<rect x="45.7" y="75.8" class="st0" width="0.9" height="0.9"/>
<rect x="47" y="75.8" class="st0" width="0.9" height="0.9"/>
<rect x="48.2" y="75.8" class="st0" width="0.9" height="0.9"/>
<rect x="49.4" y="75.8" class="st0" width="0.9" height="0.9"/>
<rect x="50.7" y="75.8" class="st0" width="0.9" height="0.9"/>
<path class="st0" d="M51.9,75.8v0.9h0.7l0.2-0.3v-0.6L51.9,75.8z"/>
<path class="st0" d="M53.2,75.9L53.2,75.9L53.2,75.9L53.2,75.9z"/>
<path class="st0" d="M26.8,77h-0.9c0.2,0.3,0.4,0.6,0.6,0.9h0.3V77z"/>
<rect x="27.1" y="77" class="st0" width="0.9" height="0.9"/>
<rect x="28.4" y="77" class="st0" width="0.9" height="0.9"/>
<rect x="29.6" y="77" class="st0" width="0.9" height="0.9"/>
<rect x="30.8" y="77" class="st0" width="0.9" height="0.9"/>
<rect x="32.1" y="77" class="st0" width="0.9" height="0.9"/>
<rect x="33.3" y="77" class="st0" width="0.9" height="0.9"/>
<rect x="34.6" y="77" class="st0" width="0.9" height="0.9"/>
<rect x="35.8" y="77" class="st0" width="0.9" height="0.9"/>
<rect x="37" y="77" class="st0" width="0.9" height="0.9"/>
<rect x="38.3" y="77" class="st0" width="0.9" height="0.9"/>
<rect x="39.5" y="77" class="st0" width="0.9" height="0.9"/>
<rect x="40.8" y="77" class="st0" width="0.9" height="0.9"/>
<rect x="42" y="77" class="st0" width="0.9" height="0.9"/>
<rect x="43.2" y="77" class="st0" width="0.9" height="0.9"/>
<rect x="44.5" y="77" class="st0" width="0.9" height="0.9"/>
<rect x="45.7" y="77" class="st0" width="0.9" height="0.9"/>
<rect x="47" y="77" class="st0" width="0.9" height="0.9"/>
<rect x="48.2" y="77" class="st0" width="0.9" height="0.9"/>
<rect x="49.4" y="77" class="st0" width="0.9" height="0.9"/>
<rect x="50.7" y="77" class="st0" width="0.9" height="0.9"/>
<path class="st0" d="M51.9,77.7c0.2-0.2,0.4-0.5,0.5-0.7h-0.5V77.7z"/>
<path class="st0" d="M26.7,78.1L26.7,78.1L26.7,78.1L26.7,78.1z"/>
<path class="st0" d="M28,78.1h-0.9v0.5l0.4,0.4H28L28,78.1z"/>
<rect x="28.4" y="78.1" class="st0" width="0.9" height="0.9"/>
<rect x="29.6" y="78.1" class="st0" width="0.9" height="0.9"/>
<rect x="30.8" y="78.1" class="st0" width="0.9" height="0.9"/>
<rect x="32.1" y="78.1" class="st0" width="0.9" height="0.9"/>
<rect x="33.3" y="78.1" class="st0" width="0.9" height="0.9"/>
<rect x="34.6" y="78.1" class="st0" width="0.9" height="0.9"/>
<rect x="35.8" y="78.1" class="st0" width="0.9" height="0.9"/>
<rect x="37" y="78.1" class="st0" width="0.9" height="0.9"/>
<rect x="38.3" y="78.1" class="st0" width="0.9" height="0.9"/>
<rect x="39.5" y="78.1" class="st0" width="0.9" height="0.9"/>
<rect x="40.8" y="78.1" class="st0" width="0.9" height="0.9"/>
<rect x="42" y="78.1" class="st0" width="0.9" height="0.9"/>
<rect x="43.2" y="78.1" class="st0" width="0.9" height="0.9"/>
<rect x="44.5" y="78.1" class="st0" width="0.9" height="0.9"/>
<rect x="45.7" y="78.1" class="st0" width="0.9" height="0.9"/>
<rect x="47" y="78.1" class="st0" width="0.9" height="0.9"/>
<rect x="48.2" y="78.1" class="st0" width="0.9" height="0.9"/>
<rect x="49.4" y="78.1" class="st0" width="0.9" height="0.9"/>
<path class="st0" d="M50.7,79c0.3-0.3,0.6-0.6,0.8-0.9h-0.8V79z"/>
<path class="st0" d="M27.8,79.3l0.3,0.3v-0.3H27.8z"/>
<path class="st0" d="M29.3,79.3h-0.9v0.6l0.4,0.3h0.5V79.3z"/>
<rect x="29.6" y="79.3" class="st0" width="0.9" height="0.9"/>
<rect x="30.8" y="79.3" class="st0" width="0.9" height="0.9"/>
<rect x="32.1" y="79.3" class="st0" width="0.9" height="0.9"/>
<rect x="33.3" y="79.3" class="st0" width="0.9" height="0.9"/>
<rect x="34.6" y="79.3" class="st0" width="0.9" height="0.9"/>
<rect x="35.8" y="79.3" class="st0" width="0.9" height="0.9"/>
<rect x="37" y="79.3" class="st0" width="0.9" height="0.9"/>
<rect x="38.3" y="79.3" class="st0" width="0.9" height="0.9"/>
<rect x="39.5" y="79.3" class="st0" width="0.9" height="0.9"/>
<rect x="40.8" y="79.3" class="st0" width="0.9" height="0.9"/>
<rect x="42" y="79.3" class="st0" width="0.9" height="0.9"/>
<rect x="43.2" y="79.3" class="st0" width="0.9" height="0.9"/>
<rect x="44.5" y="79.3" class="st0" width="0.9" height="0.9"/>
<rect x="45.7" y="79.3" class="st0" width="0.9" height="0.9"/>
<rect x="47" y="79.3" class="st0" width="0.9" height="0.9"/>
<rect x="48.2" y="79.3" class="st0" width="0.9" height="0.9"/>
<path class="st0" d="M49.4,80.1c0.3-0.2,0.6-0.5,0.9-0.8h-0.9V80.1z"/>
<path class="st0" d="M29.1,80.5l0.2,0.1v-0.1H29.1z"/>
<path class="st0" d="M29.6,80.5v0.3c0.3,0.2,0.6,0.4,0.9,0.6v-0.9L29.6,80.5z"/>
<rect x="30.8" y="80.5" class="st0" width="0.9" height="0.9"/>
<rect x="32.1" y="80.5" class="st0" width="0.9" height="0.9"/>
<rect x="33.3" y="80.5" class="st0" width="0.9" height="0.9"/>
<rect x="34.6" y="80.5" class="st0" width="0.9" height="0.9"/>
<rect x="35.8" y="80.5" class="st0" width="0.9" height="0.9"/>
<rect x="37" y="80.5" class="st0" width="0.9" height="0.9"/>
<rect x="38.3" y="80.5" class="st0" width="0.9" height="0.9"/>
<rect x="39.5" y="80.5" class="st0" width="0.9" height="0.9"/>
<rect x="40.8" y="80.5" class="st0" width="0.9" height="0.9"/>
<rect x="42" y="80.5" class="st0" width="0.9" height="0.9"/>
<rect x="43.2" y="80.5" class="st0" width="0.9" height="0.9"/>
<rect x="44.5" y="80.5" class="st0" width="0.9" height="0.9"/>
<rect x="45.7" y="80.5" class="st0" width="0.9" height="0.9"/>
<path class="st0" d="M47,80.5v0.9h0.3l0.6-0.3v-0.6L47,80.5z"/>
<path class="st0" d="M48.2,80.9l0.7-0.4h-0.7V80.9z"/>
<path class="st0" d="M31,81.7l0.7,0.3v-0.3H31z"/>
<path class="st0" d="M32.1,81.7v0.5c0.3,0.1,0.6,0.2,0.9,0.3v-0.8H32.1z"/>
<path class="st0" d="M34.2,81.7h-0.9v0.9h0.9V81.7z"/>
<rect x="34.6" y="81.7" class="st0" width="0.9" height="0.9"/>
<rect x="35.8" y="81.7" class="st0" width="0.9" height="0.9"/>
<rect x="37" y="81.7" class="st0" width="0.9" height="0.9"/>
<rect x="38.3" y="81.7" class="st0" width="0.9" height="0.9"/>
<rect x="39.5" y="81.7" class="st0" width="0.9" height="0.9"/>
<rect x="40.8" y="81.7" class="st0" width="0.9" height="0.9"/>
<rect x="42" y="81.7" class="st0" width="0.9" height="0.9"/>
<rect x="43.2" y="81.7" class="st0" width="0.9" height="0.9"/>
<path class="st0" d="M44.5,81.7v0.8l0.9-0.3v-0.6L44.5,81.7z"/>
<path class="st0" d="M45.7,81.7v0.4c0.3-0.1,0.6-0.2,0.9-0.4v-0.1H45.7z"/>
<path class="st0" d="M34.6,82.8L34.6,82.8l0.9,0.2v-0.2L34.6,82.8z"/>
<path class="st0" d="M35.8,82.8v0.3l0.9,0.1v-0.4H35.8z"/>
<path class="st0" d="M37,82.8v0.4H38v-0.4L37,82.8z"/>
<path class="st0" d="M38.3,82.8v0.4h0.9v-0.4H38.3z"/>
<path class="st0" d="M39.5,82.8v0.4h0.9v-0.4L39.5,82.8z"/>
<path class="st0" d="M40.8,82.8v0.4l0.9-0.1v-0.3H40.8z"/>
<path class="st0" d="M42,82.8v0.2l0.9-0.2v-0.1L42,82.8z"/>
<linearGradient id="SVGID_1_" gradientUnits="userSpaceOnUse" x1="21.07" y1="36.4799" x2="153.71" y2="36.4799" gradientTransform="matrix(1 0 0 -1 0 101.94)">
	<stop  offset="1.000000e-02" style="stop-color:#2EA5DD"/>
	<stop  offset="0.7" style="stop-color:#2085AD"/>
	<stop  offset="1" style="stop-color:#11657C"/>
</linearGradient>
<path class="st1" d="M86.4,67.7c0,5.2-2.9,9.3-9.2,9.3s-9.1-3.8-9.1-9.3l0.1-16.4h-2.8l-0.1,16.5c0,6.8,3.9,11.8,11.9,11.8
	s12-5.4,12.1-11.8l0.1-16.5h-2.8L86.4,67.7z"/>
<linearGradient id="SVGID_2_" gradientUnits="userSpaceOnUse" x1="17.97" y1="36.65" x2="158.41" y2="36.65" gradientTransform="matrix(1 0 0 -1 0 101.94)">
	<stop  offset="1.000000e-02" style="stop-color:#2EA5DD"/>
	<stop  offset="0.7" style="stop-color:#2085AD"/>
	<stop  offset="1" style="stop-color:#11657C"/>
</linearGradient>
<polygon class="st2" points="104.4,51.3 101.4,51.3 101.3,79.2 121.3,79.3 121.3,76.8 104.3,76.8 "/>
<linearGradient id="SVGID_3_" gradientUnits="userSpaceOnUse" x1="22.72" y1="36.6397" x2="157.79" y2="36.6397" gradientTransform="matrix(1 0 0 -1 0 101.94)">
	<stop  offset="1.000000e-02" style="stop-color:#2EA5DD"/>
	<stop  offset="0.7" style="stop-color:#2085AD"/>
	<stop  offset="1" style="stop-color:#11657C"/>
</linearGradient>
<path class="st3" d="M140.7,50.6c-7.9-0.2-14.5,6.1-14.7,14c0,0.2,0,0.5,0,0.7c0,8.1,6.5,14.7,14.6,14.7s14.7-6.5,14.7-14.6
	c0.2-7.9-6-14.5-13.9-14.8C141.2,50.6,141,50.6,140.7,50.6z M140.6,77.3c-6.4,0.1-11.7-4.9-11.8-11.3c0-0.2,0-0.4,0-0.7
	c0-6.5,5.4-11.8,11.9-11.8s11.8,5.4,11.8,11.9c0.2,6.4-4.9,11.7-11.2,11.9C141.1,77.3,140.9,77.3,140.6,77.3L140.6,77.3z"/>
</svg>
