<svg id="Layer_1" data-name="Layer 1" xmlns="http://www.w3.org/2000/svg" viewBox="0 0 500 500"><defs><style>.cls-1{fill:#2ea5dd;}</style></defs><title>JULO Logo</title><path class="cls-1" d="M224.5,315.55l-.33.11h.34S224.5,315.58,224.5,315.55Z"/><rect class="cls-1" x="149.87" y="108.07" width="4.55" height="4.56"/><rect class="cls-1" x="166.69" y="114.19" width="4.55" height="4.56"/><rect class="cls-1" x="184.18" y="120.7" width="4.56" height="4.56"/><rect class="cls-1" x="201.89" y="127.33" width="4.56" height="4.56"/><rect class="cls-1" x="219.45" y="133.84" width="4.57" height="4.56"/><rect class="cls-1" x="236.56" y="140.1" width="4.56" height="4.56"/><rect class="cls-1" x="253" y="145.97" width="4.56" height="4.56"/><rect class="cls-1" x="268.65" y="151.39" width="4.56" height="4.56"/><rect class="cls-1" x="283.39" y="156.3" width="4.56" height="4.56"/><rect class="cls-1" x="168.17" y="124.46" width="4.56" height="4.56"/><rect class="cls-1" x="183.12" y="129.49" width="4.56" height="4.56"/><rect class="cls-1" x="198.7" y="134.89" width="4.56" height="4.56"/><rect class="cls-1" x="214.56" y="140.44" width="4.56" height="4.56"/><rect class="cls-1" x="230.37" y="145.96" width="4.56" height="4.56"/><rect class="cls-1" x="245.87" y="151.3" width="4.56" height="4.56"/><rect class="cls-1" x="260.86" y="156.35" width="4.55" height="4.56"/><rect class="cls-1" x="275.22" y="161.03" width="4.56" height="4.56"/><rect class="cls-1" x="288.83" y="165.3" width="4.56" height="4.56"/><rect class="cls-1" x="184.64" y="139.79" width="4.56" height="4.56"/><rect class="cls-1" x="198.03" y="143.92" width="4.56" height="4.56"/><rect class="cls-1" x="212" y="148.39" width="4.56" height="4.56"/><rect class="cls-1" x="226.25" y="153.01" width="4.56" height="4.56"/><rect class="cls-1" x="240.52" y="157.65" width="4.56" height="4.56"/><rect class="cls-1" x="254.59" y="162.17" width="4.55" height="4.56"/><rect class="cls-1" x="268.27" y="166.47" width="4.55" height="4.56"/><rect class="cls-1" x="281.44" y="170.48" width="4.56" height="4.56"/><rect class="cls-1" x="294.01" y="174.14" width="4.56" height="4.56"/><rect class="cls-1" x="199.32" y="154.09" width="4.56" height="4.56"/><rect class="cls-1" x="211.41" y="157.48" width="4.56" height="4.56"/><rect class="cls-1" x="224.01" y="161.16" width="4.56" height="4.56"/><rect class="cls-1" x="236.89" y="164.99" width="4.56" height="4.56"/><rect class="cls-1" x="249.82" y="168.86" width="4.57" height="4.56"/><rect class="cls-1" x="262.62" y="172.65" width="4.55" height="4.56"/><rect class="cls-1" x="275.12" y="176.28" width="4.56" height="4.56"/><rect class="cls-1" x="287.22" y="179.67" width="4.56" height="4.56"/><rect class="cls-1" x="298.83" y="182.78" width="4.56" height="4.56"/><rect class="cls-1" x="212.29" y="167.41" width="4.55" height="4.56"/><rect class="cls-1" x="223.29" y="170.17" width="4.56" height="4.56"/><rect class="cls-1" x="234.74" y="173.19" width="4.56" height="4.56"/><rect class="cls-1" x="246.44" y="176.35" width="4.56" height="4.56"/><rect class="cls-1" x="258.21" y="179.56" width="4.56" height="4.56"/><rect class="cls-1" x="269.9" y="182.71" width="4.55" height="4.56"/><rect class="cls-1" x="281.36" y="185.74" width="4.56" height="4.56"/><rect class="cls-1" x="292.51" y="188.58" width="4.56" height="4.56"/><rect class="cls-1" x="303.26" y="191.2" width="4.56" height="4.56"/><rect class="cls-1" x="223.62" y="179.8" width="4.55" height="4.57"/><rect class="cls-1" x="233.72" y="182.04" width="4.55" height="4.56"/><rect class="cls-1" x="244.2" y="184.5" width="4.56" height="4.56"/><rect class="cls-1" x="254.9" y="187.09" width="4.56" height="4.57"/><rect class="cls-1" x="265.68" y="189.72" width="4.56" height="4.56"/><rect class="cls-1" x="276.41" y="192.33" width="4.56" height="4.56"/><rect class="cls-1" x="286.96" y="194.83" width="4.56" height="4.56"/><rect class="cls-1" x="297.27" y="197.19" width="4.56" height="4.56"/><rect class="cls-1" x="307.24" y="199.36" width="4.56" height="4.56"/><rect class="cls-1" x="233.43" y="191.32" width="4.56" height="4.56"/><rect class="cls-1" x="242.78" y="193.12" width="4.56" height="4.56"/><rect class="cls-1" x="252.45" y="195.12" width="4.56" height="4.56"/><rect class="cls-1" x="262.3" y="197.22" width="4.56" height="4.56"/><rect class="cls-1" x="272.23" y="199.36" width="4.57" height="4.56"/><rect class="cls-1" x="282.13" y="201.49" width="4.56" height="4.56"/><rect class="cls-1" x="291.9" y="203.54" width="4.56" height="4.56"/><rect class="cls-1" x="301.47" y="205.48" width="4.56" height="4.56"/><rect class="cls-1" x="310.77" y="207.26" width="4.56" height="4.56"/><rect class="cls-1" x="241.85" y="202.02" width="4.55" height="4.56"/><rect class="cls-1" x="250.57" y="203.47" width="4.56" height="4.56"/><rect class="cls-1" x="259.56" y="205.07" width="4.56" height="4.56"/><rect class="cls-1" x="268.7" y="206.77" width="4.56" height="4.56"/><rect class="cls-1" x="277.91" y="208.5" width="4.57" height="4.56"/><rect class="cls-1" x="287.11" y="210.22" width="4.56" height="4.56"/><rect class="cls-1" x="296.2" y="211.88" width="4.56" height="4.56"/><rect class="cls-1" x="305.13" y="213.45" width="4.56" height="4.56"/><rect class="cls-1" x="313.84" y="214.9" width="4.56" height="4.56"/><rect class="cls-1" x="248.98" y="212" width="4.55" height="4.55"/><rect class="cls-1" x="257.19" y="213.15" width="4.55" height="4.56"/><rect class="cls-1" x="265.61" y="214.43" width="4.56" height="4.55"/><rect class="cls-1" x="274.16" y="215.78" width="4.56" height="4.56"/><rect class="cls-1" x="282.77" y="217.16" width="4.56" height="4.56"/><rect class="cls-1" x="291.36" y="218.54" width="4.56" height="4.56"/><rect class="cls-1" x="299.87" y="219.87" width="4.55" height="4.56"/><rect class="cls-1" x="308.26" y="221.13" width="4.56" height="4.55"/><rect class="cls-1" x="316.47" y="222.28" width="4.56" height="4.56"/><rect class="cls-1" x="254.95" y="221.3" width="4.56" height="4.56"/><rect class="cls-1" x="262.74" y="222.21" width="4.56" height="4.56"/><rect class="cls-1" x="270.69" y="223.22" width="4.56" height="4.56"/><rect class="cls-1" x="278.75" y="224.29" width="4.56" height="4.56"/><rect class="cls-1" x="286.85" y="225.38" width="4.56" height="4.56"/><rect class="cls-1" x="294.95" y="226.47" width="4.55" height="4.55"/><rect class="cls-1" x="302.97" y="227.52" width="4.56" height="4.56"/><rect class="cls-1" x="310.9" y="228.51" width="4.56" height="4.56"/><rect class="cls-1" x="318.68" y="229.42" width="4.56" height="4.55"/><rect class="cls-1" x="259.9" y="230.02" width="4.55" height="4.56"/><rect class="cls-1" x="267.33" y="230.72" width="4.56" height="4.56"/><rect class="cls-1" x="274.9" y="231.51" width="4.56" height="4.56"/><rect class="cls-1" x="282.55" y="232.34" width="4.56" height="4.56"/><rect class="cls-1" x="290.23" y="233.2" width="4.57" height="4.56"/><rect class="cls-1" x="297.91" y="234.04" width="4.56" height="4.56"/><rect class="cls-1" x="305.53" y="234.86" width="4.56" height="4.56"/><rect class="cls-1" x="313.07" y="235.63" width="4.56" height="4.56"/><rect class="cls-1" x="320.49" y="236.33" width="4.56" height="4.56"/><rect class="cls-1" x="263.93" y="238.2" width="4.56" height="4.56"/><rect class="cls-1" x="271.09" y="238.75" width="4.55" height="4.56"/><rect class="cls-1" x="278.34" y="239.36" width="4.56" height="4.56"/><rect class="cls-1" x="285.65" y="239.99" width="4.56" height="4.56"/><rect class="cls-1" x="292.99" y="240.65" width="4.56" height="4.56"/><rect class="cls-1" x="300.32" y="241.3" width="4.56" height="4.56"/><rect class="cls-1" x="307.61" y="241.92" width="4.56" height="4.56"/><rect class="cls-1" x="314.83" y="242.51" width="4.56" height="4.56"/><rect class="cls-1" x="321.95" y="243.04" width="4.56" height="4.56"/><rect class="cls-1" x="267.17" y="245.94" width="4.56" height="4.56"/><rect class="cls-1" x="274.09" y="246.35" width="4.56" height="4.56"/><rect class="cls-1" x="281.09" y="246.81" width="4.56" height="4.56"/><rect class="cls-1" x="288.13" y="247.29" width="4.56" height="4.56"/><rect class="cls-1" x="295.19" y="247.78" width="4.56" height="4.56"/><rect class="cls-1" x="302.24" y="248.27" width="4.56" height="4.56"/><rect class="cls-1" x="309.25" y="248.74" width="4.56" height="4.57"/><rect class="cls-1" x="316.21" y="249.17" width="4.56" height="4.56"/><rect class="cls-1" x="323.1" y="249.57" width="4.56" height="4.56"/><rect class="cls-1" x="269.72" y="253.27" width="4.55" height="4.56"/><rect class="cls-1" x="276.46" y="253.58" width="4.55" height="4.56"/><rect class="cls-1" x="283.25" y="253.92" width="4.56" height="4.56"/><rect class="cls-1" x="290.07" y="254.28" width="4.56" height="4.56"/><rect class="cls-1" x="296.9" y="254.64" width="4.56" height="4.56"/><rect class="cls-1" x="303.73" y="255" width="4.56" height="4.56"/><rect class="cls-1" x="310.52" y="255.34" width="4.56" height="4.56"/><rect class="cls-1" x="317.28" y="255.66" width="4.56" height="4.56"/><rect class="cls-1" x="323.97" y="255.94" width="4.56" height="4.56"/><rect class="cls-1" x="271.68" y="260.27" width="4.55" height="4.56"/><rect class="cls-1" x="278.28" y="260.5" width="4.55" height="4.56"/><rect class="cls-1" x="284.91" y="260.74" width="4.56" height="4.56"/><rect class="cls-1" x="291.56" y="261" width="4.56" height="4.56"/><rect class="cls-1" x="298.21" y="261.26" width="4.56" height="4.56"/><rect class="cls-1" x="304.86" y="261.52" width="4.55" height="4.56"/><rect class="cls-1" x="311.48" y="261.76" width="4.55" height="4.56"/><rect class="cls-1" x="318.07" y="261.98" width="4.56" height="4.56"/><rect class="cls-1" x="324.61" y="262.18" width="4.56" height="4.57"/><rect class="cls-1" x="273.16" y="266.99" width="4.55" height="4.56"/><rect class="cls-1" x="279.64" y="267.15" width="4.55" height="4.56"/><rect class="cls-1" x="286.14" y="267.32" width="4.56" height="4.56"/><rect class="cls-1" x="292.65" y="267.51" width="4.56" height="4.56"/><rect class="cls-1" x="299.17" y="267.69" width="4.57" height="4.56"/><rect class="cls-1" x="305.68" y="267.86" width="4.56" height="4.56"/><rect class="cls-1" x="312.17" y="268.03" width="4.56" height="4.56"/><rect class="cls-1" x="318.63" y="268.18" width="4.56" height="4.56"/><rect class="cls-1" x="325.05" y="268.31" width="4.57" height="4.56"/><rect class="cls-1" x="274.23" y="273.48" width="4.56" height="4.56"/><rect class="cls-1" x="280.62" y="273.59" width="4.56" height="4.56"/><rect class="cls-1" x="287.03" y="273.71" width="4.56" height="4.56"/><rect class="cls-1" x="293.44" y="273.83" width="4.56" height="4.56"/><rect class="cls-1" x="299.85" y="273.95" width="4.56" height="4.56"/><rect class="cls-1" x="306.26" y="274.07" width="4.56" height="4.56"/><rect class="cls-1" x="312.65" y="274.18" width="4.56" height="4.56"/><rect class="cls-1" x="319.02" y="274.27" width="4.56" height="4.56"/><rect class="cls-1" x="325.35" y="274.35" width="4.57" height="4.56"/><rect class="cls-1" x="274.98" y="279.78" width="4.56" height="4.56"/><rect class="cls-1" x="281.31" y="279.85" width="4.56" height="4.56"/><rect class="cls-1" x="287.64" y="279.93" width="4.56" height="4.56"/><rect class="cls-1" x="293.98" y="280.01" width="4.56" height="4.56"/><rect class="cls-1" x="300.32" y="280.09" width="4.56" height="4.56"/><rect class="cls-1" x="306.65" y="280.16" width="4.56" height="4.56"/><rect class="cls-1" x="312.96" y="280.23" width="4.56" height="4.56"/><rect class="cls-1" x="319.26" y="280.28" width="4.56" height="4.56"/><rect class="cls-1" x="325.54" y="280.33" width="4.56" height="4.56"/><rect class="cls-1" x="275.48" y="285.94" width="4.56" height="4.56"/><rect class="cls-1" x="281.76" y="285.98" width="4.55" height="4.56"/><rect class="cls-1" x="288.04" y="286.03" width="4.56" height="4.56"/><rect class="cls-1" x="294.33" y="286.08" width="4.56" height="4.56"/><rect class="cls-1" x="300.61" y="286.13" width="4.56" height="4.56"/><rect class="cls-1" x="306.89" y="286.17" width="4.56" height="4.56"/><rect class="cls-1" x="313.15" y="286.21" width="4.56" height="4.56"/><rect class="cls-1" x="319.4" y="286.24" width="4.56" height="4.56"/><rect class="cls-1" x="325.64" y="286.26" width="4.56" height="4.56"/><rect class="cls-1" x="275.79" y="291.99" width="4.56" height="4.56"/><rect class="cls-1" x="282.04" y="292.02" width="4.55" height="4.56"/><rect class="cls-1" x="288.29" y="292.04" width="4.56" height="4.56"/><rect class="cls-1" x="294.53" y="292.07" width="4.56" height="4.56"/><rect class="cls-1" x="300.78" y="292.09" width="4.57" height="4.56"/><rect class="cls-1" x="307.02" y="292.12" width="4.56" height="4.56"/><rect class="cls-1" x="313.25" y="292.14" width="4.56" height="4.56"/><rect class="cls-1" x="319.48" y="292.15" width="4.56" height="4.56"/><rect class="cls-1" x="325.69" y="292.16" width="4.57" height="4.56"/><rect class="cls-1" x="275.97" y="297.97" width="4.55" height="4.56"/><rect class="cls-1" x="282.2" y="297.98" width="4.56" height="4.56"/><rect class="cls-1" x="288.42" y="297.99" width="4.56" height="4.56"/><rect class="cls-1" x="294.64" y="298" width="4.56" height="4.56"/><rect class="cls-1" x="300.86" y="298.02" width="4.57" height="4.55"/><rect class="cls-1" x="307.09" y="298.03" width="4.56" height="4.56"/><rect class="cls-1" x="313.3" y="298.03" width="4.55" height="4.56"/><rect class="cls-1" x="319.51" y="298.04" width="4.56" height="4.56"/><rect class="cls-1" x="325.71" y="298.04" width="4.57" height="4.56"/><rect class="cls-1" x="276.06" y="303.89" width="4.55" height="4.56"/><rect class="cls-1" x="282.28" y="303.89" width="4.55" height="4.56"/><rect class="cls-1" x="288.49" y="303.9" width="4.55" height="4.56"/><rect class="cls-1" x="294.7" y="303.9" width="4.56" height="4.56"/><rect class="cls-1" x="300.9" y="303.9" width="4.56" height="4.56"/><rect class="cls-1" x="307.11" y="303.91" width="4.55" height="4.56"/><rect class="cls-1" x="313.31" y="303.91" width="4.56" height="4.56"/><rect class="cls-1" x="319.52" y="303.91" width="4.56" height="4.56"/><rect class="cls-1" x="325.72" y="303.91" width="4.56" height="4.56"/><rect class="cls-1" x="276.1" y="309.78" width="4.56" height="4.56"/><rect class="cls-1" x="282.31" y="309.78" width="4.56" height="4.56"/><rect class="cls-1" x="288.51" y="309.78" width="4.56" height="4.56"/><rect class="cls-1" x="294.71" y="309.78" width="4.56" height="4.56"/><rect class="cls-1" x="300.91" y="309.78" width="4.56" height="4.56"/><rect class="cls-1" x="307.12" y="309.78" width="4.55" height="4.56"/><rect class="cls-1" x="313.32" y="309.78" width="4.56" height="4.56"/><rect class="cls-1" x="319.52" y="309.78" width="4.56" height="4.56"/><rect class="cls-1" x="325.72" y="309.78" width="4.56" height="4.56"/><polygon class="cls-1" points="212.46 319.51 210.33 320.21 212.46 320.21 212.46 319.51"/><polygon class="cls-1" points="218.66 320.21 218.66 317.47 214.11 318.97 214.11 320.21 218.66 320.21"/><path class="cls-1" d="M224.86,320.21c-.27-2-.42-4.11-.83-4.2a13.6,13.6,0,0,0-3.72.91v3.29Z"/><rect class="cls-1" x="276.11" y="315.65" width="4.56" height="4.56"/><rect class="cls-1" x="282.31" y="315.65" width="4.55" height="4.56"/><rect class="cls-1" x="288.52" y="315.65" width="4.56" height="4.56"/><rect class="cls-1" x="294.72" y="315.65" width="4.56" height="4.56"/><rect class="cls-1" x="300.91" y="315.65" width="4.57" height="4.56"/><rect class="cls-1" x="307.12" y="315.65" width="4.55" height="4.56"/><rect class="cls-1" x="313.32" y="315.65" width="4.56" height="4.56"/><rect class="cls-1" x="319.52" y="315.65" width="4.56" height="4.56"/><rect class="cls-1" x="325.72" y="315.65" width="4.56" height="4.56"/><polygon class="cls-1" points="193.86 325.64 192.5 326.09 193.86 326.09 193.86 325.64"/><polygon class="cls-1" points="200.06 326.09 200.06 323.6 195.5 325.1 195.5 326.09 200.06 326.09"/><polygon class="cls-1" points="206.26 326.09 206.26 321.56 201.7 323.06 201.7 326.09 206.26 326.09"/><rect class="cls-1" x="207.9" y="321.52" width="4.56" height="4.57"/><rect class="cls-1" x="214.11" y="321.52" width="4.56" height="4.57"/><rect class="cls-1" x="220.31" y="321.52" width="4.55" height="4.57"/><path class="cls-1" d="M226.87,326.09c-.13-.36-.25-.71-.36-1.07v1.07Z"/><path class="cls-1" d="M274.47,323.65c-.11.84-.24,1.65-.37,2.44h.37Z"/><rect class="cls-1" x="276.11" y="321.52" width="4.55" height="4.57"/><rect class="cls-1" x="282.31" y="321.52" width="4.56" height="4.57"/><rect class="cls-1" x="288.52" y="321.52" width="4.56" height="4.57"/><rect class="cls-1" x="294.72" y="321.52" width="4.56" height="4.57"/><rect class="cls-1" x="300.91" y="321.52" width="4.57" height="4.57"/><rect class="cls-1" x="307.12" y="321.52" width="4.55" height="4.57"/><rect class="cls-1" x="313.32" y="321.52" width="4.56" height="4.57"/><rect class="cls-1" x="319.52" y="321.52" width="4.56" height="4.57"/><rect class="cls-1" x="325.72" y="321.52" width="4.56" height="4.57"/><polygon class="cls-1" points="175.25 331.77 174.68 331.95 175.25 331.95 175.25 331.77"/><polygon class="cls-1" points="181.46 331.95 181.46 329.72 176.9 331.23 176.9 331.95 181.46 331.95"/><polygon class="cls-1" points="187.66 331.95 187.66 327.68 183.1 329.19 183.1 331.95 187.66 331.95"/><rect class="cls-1" x="189.3" y="327.4" width="4.56" height="4.56"/><rect class="cls-1" x="195.5" y="327.4" width="4.56" height="4.56"/><rect class="cls-1" x="201.7" y="327.4" width="4.56" height="4.56"/><rect class="cls-1" x="207.9" y="327.4" width="4.56" height="4.56"/><rect class="cls-1" x="214.11" y="327.4" width="4.56" height="4.56"/><rect class="cls-1" x="220.31" y="327.4" width="4.55" height="4.56"/><path class="cls-1" d="M226.51,332h3.06a36.12,36.12,0,0,1-2.19-4.56h-.86Z"/><path class="cls-1" d="M274.47,327.4h-.62a35.66,35.66,0,0,1-1.23,4.56h1.85Z"/><rect class="cls-1" x="276.11" y="327.4" width="4.55" height="4.56"/><rect class="cls-1" x="282.31" y="327.4" width="4.56" height="4.56"/><rect class="cls-1" x="288.52" y="327.4" width="4.56" height="4.56"/><rect class="cls-1" x="294.72" y="327.4" width="4.56" height="4.56"/><rect class="cls-1" x="300.91" y="327.4" width="4.57" height="4.56"/><rect class="cls-1" x="307.12" y="327.4" width="4.55" height="4.56"/><rect class="cls-1" x="313.32" y="327.4" width="4.56" height="4.56"/><rect class="cls-1" x="319.52" y="327.4" width="4.56" height="4.56"/><path class="cls-1" d="M325.72,327.4V332h4.19a42.48,42.48,0,0,0,.37-4.56Z"/><path class="cls-1" d="M175.26,333.27h-3.38a.93.93,0,0,0-.91,1.08c.2,1.17.41,2.33.63,3.48h3.66Z"/><rect class="cls-1" x="176.9" y="333.27" width="4.56" height="4.56"/><rect class="cls-1" x="183.1" y="333.27" width="4.56" height="4.56"/><rect class="cls-1" x="189.3" y="333.27" width="4.56" height="4.56"/><rect class="cls-1" x="195.5" y="333.27" width="4.56" height="4.56"/><rect class="cls-1" x="201.7" y="333.27" width="4.56" height="4.56"/><rect class="cls-1" x="207.9" y="333.27" width="4.56" height="4.56"/><rect class="cls-1" x="214.11" y="333.27" width="4.56" height="4.56"/><rect class="cls-1" x="220.31" y="333.27" width="4.55" height="4.56"/><path class="cls-1" d="M226.51,337.83h4.56v-3.48c-.25-.36-.49-.72-.72-1.08h-3.84Z"/><path class="cls-1" d="M233.92,337.83c-.42-.43-.83-.88-1.22-1.34v1.34Z"/><path class="cls-1" d="M274.47,337.83v-4.56h-2.34a20.8,20.8,0,0,1-2.22,4.15v.42Z"/><rect class="cls-1" x="276.11" y="333.27" width="4.55" height="4.56"/><rect class="cls-1" x="282.31" y="333.27" width="4.56" height="4.56"/><rect class="cls-1" x="288.52" y="333.27" width="4.56" height="4.56"/><rect class="cls-1" x="294.72" y="333.27" width="4.56" height="4.56"/><rect class="cls-1" x="300.91" y="333.27" width="4.57" height="4.56"/><rect class="cls-1" x="307.12" y="333.27" width="4.55" height="4.56"/><rect class="cls-1" x="313.32" y="333.27" width="4.56" height="4.56"/><rect class="cls-1" x="319.52" y="333.27" width="4.56" height="4.56"/><path class="cls-1" d="M325.72,337.83h3.39a34.09,34.09,0,0,0,.69-4.56h-4.08Z"/><path class="cls-1" d="M175.26,339.14h-3.38q.48,2.32,1,4.56h2.35Z"/><rect class="cls-1" x="176.9" y="339.14" width="4.56" height="4.56"/><rect class="cls-1" x="183.1" y="339.14" width="4.56" height="4.56"/><rect class="cls-1" x="189.3" y="339.14" width="4.56" height="4.56"/><rect class="cls-1" x="195.5" y="339.14" width="4.56" height="4.56"/><rect class="cls-1" x="201.7" y="339.14" width="4.56" height="4.56"/><rect class="cls-1" x="207.9" y="339.14" width="4.56" height="4.56"/><rect class="cls-1" x="214.11" y="339.14" width="4.56" height="4.56"/><rect class="cls-1" x="220.31" y="339.14" width="4.55" height="4.56"/><rect class="cls-1" x="226.51" y="339.14" width="4.56" height="4.56"/><path class="cls-1" d="M232.71,343.7h4.56v-3a24.23,24.23,0,0,1-2-1.59h-2.58Z"/><path class="cls-1" d="M243,343.7a22.49,22.49,0,0,1-4.05-1.89v1.89Z"/><path class="cls-1" d="M262.07,343.42c-.27.1-.55.19-.83.28h.83Z"/><path class="cls-1" d="M268.27,343.7v-4.3a16.2,16.2,0,0,1-4.56,3.3v1Z"/><rect class="cls-1" x="269.91" y="339.14" width="4.56" height="4.56"/><rect class="cls-1" x="276.11" y="339.14" width="4.55" height="4.56"/><rect class="cls-1" x="282.31" y="339.14" width="4.56" height="4.56"/><rect class="cls-1" x="288.52" y="339.14" width="4.56" height="4.56"/><rect class="cls-1" x="294.72" y="339.14" width="4.56" height="4.56"/><rect class="cls-1" x="300.91" y="339.14" width="4.57" height="4.56"/><rect class="cls-1" x="307.12" y="339.14" width="4.55" height="4.56"/><rect class="cls-1" x="313.32" y="339.14" width="4.56" height="4.56"/><rect class="cls-1" x="319.52" y="339.14" width="4.56" height="4.56"/><path class="cls-1" d="M325.72,343.7h1.92q.64-2.24,1.17-4.56h-3.09Z"/><path class="cls-1" d="M175.26,345h-2c.41,1.56.86,3.07,1.33,4.56h.69Z"/><rect class="cls-1" x="176.9" y="345.01" width="4.56" height="4.56"/><rect class="cls-1" x="183.1" y="345.01" width="4.56" height="4.56"/><rect class="cls-1" x="189.3" y="345.01" width="4.56" height="4.56"/><rect class="cls-1" x="195.5" y="345.01" width="4.56" height="4.56"/><rect class="cls-1" x="201.7" y="345.01" width="4.56" height="4.56"/><rect class="cls-1" x="207.9" y="345.01" width="4.56" height="4.56"/><rect class="cls-1" x="214.11" y="345.01" width="4.56" height="4.56"/><rect class="cls-1" x="220.31" y="345.01" width="4.55" height="4.56"/><rect class="cls-1" x="226.51" y="345.01" width="4.56" height="4.56"/><rect class="cls-1" x="232.71" y="345.01" width="4.56" height="4.56"/><rect class="cls-1" x="238.91" y="345.01" width="4.56" height="4.56"/><path class="cls-1" d="M245.11,349.57h4.56V345h-4.56Z"/><path class="cls-1" d="M255.87,349.57V345h-2.26c-.74,0-1.51.06-2.3.06v4.5Z"/><rect class="cls-1" x="257.51" y="345.01" width="4.56" height="4.56"/><rect class="cls-1" x="263.71" y="345.01" width="4.56" height="4.56"/><rect class="cls-1" x="269.91" y="345.01" width="4.56" height="4.56"/><rect class="cls-1" x="276.11" y="345.01" width="4.55" height="4.56"/><rect class="cls-1" x="282.31" y="345.01" width="4.56" height="4.56"/><rect class="cls-1" x="288.52" y="345.01" width="4.56" height="4.56"/><rect class="cls-1" x="294.72" y="345.01" width="4.56" height="4.56"/><rect class="cls-1" x="300.91" y="345.01" width="4.57" height="4.56"/><rect class="cls-1" x="307.12" y="345.01" width="4.55" height="4.56"/><rect class="cls-1" x="313.32" y="345.01" width="4.56" height="4.56"/><rect class="cls-1" x="319.52" y="345.01" width="4.56" height="4.56"/><path class="cls-1" d="M325.72,349.57h0c.54-1.5,1.05-3,1.52-4.56h-1.56Z"/><path class="cls-1" d="M175,350.88l.26.82v-.82Z"/><rect class="cls-1" x="176.9" y="350.88" width="4.56" height="4.56"/><rect class="cls-1" x="183.1" y="350.88" width="4.56" height="4.56"/><rect class="cls-1" x="189.3" y="350.88" width="4.56" height="4.56"/><rect class="cls-1" x="195.5" y="350.88" width="4.56" height="4.56"/><rect class="cls-1" x="201.7" y="350.88" width="4.56" height="4.56"/><rect class="cls-1" x="207.9" y="350.88" width="4.56" height="4.56"/><rect class="cls-1" x="214.11" y="350.88" width="4.56" height="4.56"/><rect class="cls-1" x="220.31" y="350.88" width="4.55" height="4.56"/><rect class="cls-1" x="226.51" y="350.88" width="4.56" height="4.56"/><rect class="cls-1" x="232.71" y="350.88" width="4.56" height="4.56"/><rect class="cls-1" x="238.91" y="350.88" width="4.56" height="4.56"/><rect class="cls-1" x="245.11" y="350.88" width="4.56" height="4.56"/><rect class="cls-1" x="251.31" y="350.88" width="4.56" height="4.56"/><rect class="cls-1" x="257.51" y="350.88" width="4.56" height="4.56"/><rect class="cls-1" x="263.71" y="350.88" width="4.56" height="4.56"/><rect class="cls-1" x="269.91" y="350.88" width="4.56" height="4.56"/><rect class="cls-1" x="276.11" y="350.88" width="4.55" height="4.56"/><rect class="cls-1" x="282.31" y="350.88" width="4.56" height="4.56"/><rect class="cls-1" x="288.52" y="350.88" width="4.56" height="4.56"/><rect class="cls-1" x="294.72" y="350.88" width="4.56" height="4.56"/><rect class="cls-1" x="300.91" y="350.88" width="4.57" height="4.56"/><rect class="cls-1" x="307.12" y="350.88" width="4.55" height="4.56"/><rect class="cls-1" x="313.32" y="350.88" width="4.56" height="4.56"/><path class="cls-1" d="M319.52,350.88v4.56h3.86c.24-.53.47-1.06.7-1.6v-3Z"/><path class="cls-1" d="M181.46,356.75h-4.29q1,2.34,2,4.56h2.27Z"/><rect class="cls-1" x="183.1" y="356.75" width="4.56" height="4.56"/><rect class="cls-1" x="189.3" y="356.75" width="4.56" height="4.56"/><rect class="cls-1" x="195.5" y="356.75" width="4.56" height="4.56"/><rect class="cls-1" x="201.7" y="356.75" width="4.56" height="4.56"/><rect class="cls-1" x="207.9" y="356.75" width="4.56" height="4.56"/><rect class="cls-1" x="214.11" y="356.75" width="4.56" height="4.56"/><rect class="cls-1" x="220.31" y="356.75" width="4.55" height="4.56"/><rect class="cls-1" x="226.51" y="356.75" width="4.56" height="4.56"/><rect class="cls-1" x="232.71" y="356.75" width="4.56" height="4.56"/><rect class="cls-1" x="238.91" y="356.75" width="4.56" height="4.56"/><rect class="cls-1" x="245.11" y="356.75" width="4.56" height="4.56"/><rect class="cls-1" x="251.31" y="356.75" width="4.56" height="4.56"/><rect class="cls-1" x="257.51" y="356.75" width="4.56" height="4.56"/><rect class="cls-1" x="263.71" y="356.75" width="4.56" height="4.56"/><rect class="cls-1" x="269.91" y="356.75" width="4.56" height="4.56"/><rect class="cls-1" x="276.11" y="356.75" width="4.55" height="4.56"/><rect class="cls-1" x="282.31" y="356.75" width="4.56" height="4.56"/><rect class="cls-1" x="288.52" y="356.75" width="4.56" height="4.56"/><rect class="cls-1" x="294.72" y="356.75" width="4.56" height="4.56"/><rect class="cls-1" x="300.91" y="356.75" width="4.57" height="4.56"/><rect class="cls-1" x="307.12" y="356.75" width="4.55" height="4.56"/><rect class="cls-1" x="313.32" y="356.75" width="4.56" height="4.56"/><path class="cls-1" d="M319.52,361.31h.93c.82-1.49,1.61-3,2.35-4.56h-3.28Z"/><path class="cls-1" d="M179.84,362.62q.78,1.54,1.61,3v-3Z"/><rect class="cls-1" x="183.1" y="362.62" width="4.56" height="4.56"/><rect class="cls-1" x="189.3" y="362.62" width="4.56" height="4.56"/><rect class="cls-1" x="195.5" y="362.62" width="4.56" height="4.56"/><rect class="cls-1" x="201.7" y="362.62" width="4.56" height="4.56"/><rect class="cls-1" x="207.9" y="362.62" width="4.56" height="4.56"/><rect class="cls-1" x="214.11" y="362.62" width="4.56" height="4.56"/><rect class="cls-1" x="220.31" y="362.62" width="4.55" height="4.56"/><rect class="cls-1" x="226.51" y="362.62" width="4.56" height="4.56"/><rect class="cls-1" x="232.71" y="362.62" width="4.56" height="4.56"/><rect class="cls-1" x="238.91" y="362.62" width="4.56" height="4.56"/><rect class="cls-1" x="245.11" y="362.62" width="4.56" height="4.56"/><rect class="cls-1" x="251.31" y="362.62" width="4.56" height="4.56"/><rect class="cls-1" x="257.51" y="362.62" width="4.56" height="4.56"/><rect class="cls-1" x="263.71" y="362.62" width="4.56" height="4.56"/><rect class="cls-1" x="269.91" y="362.62" width="4.56" height="4.56"/><rect class="cls-1" x="276.11" y="362.62" width="4.55" height="4.56"/><rect class="cls-1" x="282.31" y="362.62" width="4.56" height="4.56"/><rect class="cls-1" x="288.52" y="362.62" width="4.56" height="4.56"/><rect class="cls-1" x="294.72" y="362.62" width="4.56" height="4.56"/><rect class="cls-1" x="300.91" y="362.62" width="4.57" height="4.56"/><rect class="cls-1" x="307.12" y="362.62" width="4.55" height="4.56"/><path class="cls-1" d="M313.32,362.62v4.56h3.56c.34-.51.66-1,1-1.55v-3Z"/><path class="cls-1" d="M319.52,363l.19-.34h-.19Z"/><path class="cls-1" d="M187.66,368.49h-4.51c1,1.57,2,3.1,3.09,4.56h1.41Z"/><rect class="cls-1" x="189.3" y="368.49" width="4.56" height="4.56"/><rect class="cls-1" x="195.5" y="368.49" width="4.56" height="4.56"/><rect class="cls-1" x="201.7" y="368.49" width="4.56" height="4.56"/><rect class="cls-1" x="207.9" y="368.49" width="4.56" height="4.56"/><rect class="cls-1" x="214.11" y="368.49" width="4.56" height="4.56"/><rect class="cls-1" x="220.31" y="368.49" width="4.55" height="4.56"/><rect class="cls-1" x="226.51" y="368.49" width="4.56" height="4.56"/><rect class="cls-1" x="232.71" y="368.49" width="4.56" height="4.56"/><rect class="cls-1" x="238.91" y="368.49" width="4.56" height="4.56"/><rect class="cls-1" x="245.11" y="368.49" width="4.56" height="4.56"/><rect class="cls-1" x="251.31" y="368.49" width="4.56" height="4.56"/><rect class="cls-1" x="257.51" y="368.49" width="4.56" height="4.56"/><rect class="cls-1" x="263.71" y="368.49" width="4.56" height="4.56"/><rect class="cls-1" x="269.91" y="368.49" width="4.56" height="4.56"/><rect class="cls-1" x="276.11" y="368.49" width="4.55" height="4.56"/><rect class="cls-1" x="282.31" y="368.49" width="4.56" height="4.56"/><rect class="cls-1" x="288.52" y="368.49" width="4.56" height="4.56"/><rect class="cls-1" x="294.72" y="368.49" width="4.56" height="4.56"/><rect class="cls-1" x="300.91" y="368.49" width="4.57" height="4.56"/><rect class="cls-1" x="307.12" y="368.49" width="4.55" height="4.56"/><path class="cls-1" d="M313.32,372q1.36-1.69,2.62-3.46h-2.62Z"/><path class="cls-1" d="M187.27,374.36l.39.5v-.5Z"/><path class="cls-1" d="M193.86,374.36H189.3v2.47c.62.71,1.24,1.41,1.89,2.09h2.68Z"/><rect class="cls-1" x="195.5" y="374.36" width="4.56" height="4.56"/><rect class="cls-1" x="201.7" y="374.36" width="4.56" height="4.56"/><rect class="cls-1" x="207.9" y="374.36" width="4.56" height="4.56"/><rect class="cls-1" x="214.11" y="374.36" width="4.56" height="4.56"/><rect class="cls-1" x="220.31" y="374.36" width="4.55" height="4.56"/><rect class="cls-1" x="226.51" y="374.36" width="4.56" height="4.56"/><rect class="cls-1" x="232.71" y="374.36" width="4.56" height="4.56"/><rect class="cls-1" x="238.91" y="374.36" width="4.56" height="4.56"/><rect class="cls-1" x="245.11" y="374.36" width="4.56" height="4.56"/><rect class="cls-1" x="251.31" y="374.36" width="4.56" height="4.56"/><rect class="cls-1" x="257.51" y="374.36" width="4.56" height="4.56"/><rect class="cls-1" x="263.71" y="374.36" width="4.56" height="4.56"/><rect class="cls-1" x="269.91" y="374.36" width="4.56" height="4.56"/><rect class="cls-1" x="276.11" y="374.36" width="4.55" height="4.56"/><rect class="cls-1" x="282.31" y="374.36" width="4.56" height="4.56"/><rect class="cls-1" x="288.52" y="374.36" width="4.56" height="4.56"/><rect class="cls-1" x="294.72" y="374.36" width="4.56" height="4.56"/><rect class="cls-1" x="300.91" y="374.36" width="4.57" height="4.56"/><path class="cls-1" d="M307.12,378.72c1.45-1.39,2.84-2.85,4.17-4.36h-4.17Z"/><path class="cls-1" d="M192.45,380.23c.46.46.94.9,1.41,1.35v-1.35Z"/><path class="cls-1" d="M200.06,380.23H195.5v2.84c.67.58,1.34,1.16,2,1.71h2.52Z"/><rect class="cls-1" x="201.7" y="380.23" width="4.56" height="4.56"/><rect class="cls-1" x="207.9" y="380.23" width="4.56" height="4.56"/><rect class="cls-1" x="214.11" y="380.23" width="4.56" height="4.56"/><rect class="cls-1" x="220.31" y="380.23" width="4.55" height="4.56"/><rect class="cls-1" x="226.51" y="380.23" width="4.56" height="4.56"/><rect class="cls-1" x="232.71" y="380.23" width="4.56" height="4.56"/><rect class="cls-1" x="238.91" y="380.23" width="4.56" height="4.56"/><rect class="cls-1" x="245.11" y="380.23" width="4.56" height="4.56"/><rect class="cls-1" x="251.31" y="380.23" width="4.56" height="4.56"/><rect class="cls-1" x="257.51" y="380.23" width="4.56" height="4.56"/><rect class="cls-1" x="263.71" y="380.23" width="4.56" height="4.56"/><rect class="cls-1" x="269.91" y="380.23" width="4.56" height="4.56"/><rect class="cls-1" x="276.11" y="380.23" width="4.55" height="4.56"/><rect class="cls-1" x="282.31" y="380.23" width="4.56" height="4.56"/><rect class="cls-1" x="288.52" y="380.23" width="4.56" height="4.56"/><rect class="cls-1" x="294.72" y="380.23" width="4.56" height="4.56"/><path class="cls-1" d="M300.91,384c1.58-1.19,3.08-2.45,4.54-3.76h-4.54Z"/><path class="cls-1" d="M199.27,386.1c.26.2.52.41.79.6v-.6Z"/><path class="cls-1" d="M201.7,386.1v1.72q2.21,1.49,4.56,2.8V386.1Z"/><rect class="cls-1" x="207.9" y="386.1" width="4.56" height="4.56"/><rect class="cls-1" x="214.11" y="386.1" width="4.56" height="4.56"/><rect class="cls-1" x="220.31" y="386.1" width="4.55" height="4.56"/><rect class="cls-1" x="226.51" y="386.1" width="4.56" height="4.56"/><rect class="cls-1" x="232.71" y="386.1" width="4.56" height="4.56"/><rect class="cls-1" x="238.91" y="386.1" width="4.56" height="4.56"/><rect class="cls-1" x="245.11" y="386.1" width="4.56" height="4.56"/><rect class="cls-1" x="251.31" y="386.1" width="4.56" height="4.56"/><rect class="cls-1" x="257.51" y="386.1" width="4.56" height="4.56"/><rect class="cls-1" x="263.71" y="386.1" width="4.56" height="4.56"/><rect class="cls-1" x="269.91" y="386.1" width="4.56" height="4.56"/><rect class="cls-1" x="276.11" y="386.1" width="4.55" height="4.56"/><rect class="cls-1" x="282.31" y="386.1" width="4.56" height="4.56"/><path class="cls-1" d="M288.52,386.1v4.56h1.69c1-.5,1.92-1,2.87-1.56v-3Z"/><path class="cls-1" d="M294.72,388.16q1.65-1,3.23-2.06h-3.23Z"/><path class="cls-1" d="M208.83,392c1.18.59,2.4,1.15,3.64,1.67V392Z"/><path class="cls-1" d="M214.11,392v2.36c1.48.59,3,1.13,4.56,1.63v-4Z"/><path class="cls-1" d="M224.86,392h-4.55v4.5l.2.06h4.35Z"/><rect class="cls-1" x="226.51" y="391.98" width="4.56" height="4.56"/><rect class="cls-1" x="232.71" y="391.98" width="4.56" height="4.56"/><rect class="cls-1" x="238.91" y="391.98" width="4.56" height="4.56"/><rect class="cls-1" x="245.11" y="391.98" width="4.56" height="4.56"/><rect class="cls-1" x="251.31" y="391.98" width="4.56" height="4.56"/><rect class="cls-1" x="257.51" y="391.98" width="4.56" height="4.56"/><rect class="cls-1" x="263.71" y="391.98" width="4.56" height="4.56"/><rect class="cls-1" x="269.91" y="391.98" width="4.56" height="4.56"/><path class="cls-1" d="M276.11,392v4.23q2.32-.68,4.55-1.48V392Z"/><path class="cls-1" d="M282.31,392v2.17c1.55-.59,3.08-1.2,4.56-1.87V392Z"/><path class="cls-1" d="M226.51,397.85V398c1.49.32,3,.6,4.56.85v-1Z"/><path class="cls-1" d="M232.71,397.85v1.28c1.49.2,3,.38,4.56.52v-1.79Z"/><path class="cls-1" d="M238.91,397.85v1.94q2.24.17,4.56.24v-2.18Z"/><path class="cls-1" d="M245.11,397.85v2.21c.7,0,1.39,0,2.1,0s1.64,0,2.46,0v-2.2Z"/><path class="cls-1" d="M251.31,397.85V400c1.54-.05,3.06-.14,4.56-.25v-1.92Z"/><path class="cls-1" d="M257.51,397.85v1.8q2.31-.21,4.56-.5v-1.3Z"/><path class="cls-1" d="M263.71,397.85v1q2.32-.35,4.56-.79v-.26Z"/></svg>