<svg id="Layer_1" data-name="Layer 1" xmlns="http://www.w3.org/2000/svg" xmlns:xlink="http://www.w3.org/1999/xlink" viewBox="0 0 100 60"><defs><style>.cls-1{fill:url(#radial-gradient);}.cls-2{fill:url(#radial-gradient-2);}.cls-3{fill:#313132;opacity:0.5;}.cls-4{fill:none;}.cls-5{fill:url(#linear-gradient);}.cls-6{fill:url(#linear-gradient-2);}.cls-7{fill:#8c0000;}.cls-8{fill:#646464;}</style><radialGradient id="radial-gradient" cx="28.86" cy="34.68" r="17.26" gradientTransform="translate(-0.9) scale(1.07 1)" gradientUnits="userSpaceOnUse"><stop offset="0" stop-color="#d60015"/><stop offset="0.01" stop-color="#d50015"/><stop offset="0.27" stop-color="#b60917"/><stop offset="0.53" stop-color="#a01019"/><stop offset="0.78" stop-color="#93141a"/><stop offset="1" stop-color="#8e151a"/></radialGradient><radialGradient id="radial-gradient-2" cx="30.01" cy="34.68" r="17.32" gradientTransform="matrix(1, 0, 0, 1, 0, 0)" xlink:href="#radial-gradient"/><linearGradient id="linear-gradient" x1="36.65" y1="16.4" x2="5.35" y2="27.8" gradientUnits="userSpaceOnUse"><stop offset="0" stop-color="#e78b62"/><stop offset="0.02" stop-color="#dc684e"/><stop offset="0.05" stop-color="#d24c3d"/><stop offset="0.08" stop-color="#cb3630"/><stop offset="0.11" stop-color="#c62627"/><stop offset="0.14" stop-color="#c31d22"/><stop offset="0.19" stop-color="#c21a20"/><stop offset="0.25" stop-color="#d04239"/><stop offset="0.33" stop-color="#e17157"/><stop offset="0.37" stop-color="#e78362"/><stop offset="0.39" stop-color="#e57a5c"/><stop offset="0.5" stop-color="#dd5a46"/><stop offset="0.61" stop-color="#d64235"/><stop offset="0.73" stop-color="#d23029"/><stop offset="0.85" stop-color="#cf2522"/><stop offset="1" stop-color="#ce2220"/></linearGradient><linearGradient id="linear-gradient-2" x1="-4.82" y1="35.71" x2="43.01" y2="18.3" gradientUnits="userSpaceOnUse"><stop offset="0" stop-color="#878787"/><stop offset="0.09" stop-color="#959595"/><stop offset="0.27" stop-color="#bababa"/><stop offset="0.51" stop-color="#f6f6f6"/><stop offset="0.55" stop-color="#fff"/><stop offset="0.57" stop-color="#f5f5f5"/><stop offset="0.64" stop-color="#d9d9d9"/><stop offset="0.69" stop-color="#c8c8c8"/><stop offset="0.74" stop-color="#c2c2c2"/><stop offset="0.79" stop-color="#cfcfcf"/><stop offset="0.9" stop-color="#f2f2f2"/><stop offset="0.93" stop-color="#fff"/><stop offset="0.97" stop-color="#f3f3f3"/><stop offset="1" stop-color="#e0e0e0"/></linearGradient></defs><title>OJK</title><path class="cls-1" d="M28.12,25.11V39.94c-.08,1.23-.43,2.59-1.86,2.59-.65,0-.94-.15-1.08-.41a11.23,11.23,0,0,0,1.88-6.27,11.41,11.41,0,0,0-.7-3.94c-.08-.21-.16-.41-.25-.61a9.69,9.69,0,0,0-8.77-6.08C12,25.23,7.65,30,7.65,35.86S12,46.48,17.37,46.48A9,9,0,0,0,22,45.21a6.76,6.76,0,0,0,4,1.29A7.05,7.05,0,0,0,32.7,41h0V25.11ZM19.72,42.27a5,5,0,0,1-2.38.62c-3.23,0-5.85-3.17-5.85-7.08s2.62-7.08,5.85-7.08a5.92,5.92,0,0,1,5.34,4.2,8.32,8.32,0,0,1,.51,2.88A7.26,7.26,0,0,1,19.72,42.27Z"/><polygon class="cls-2" points="34.02 33.23 34.02 39.67 36.82 37.08 43.2 46.55 49.5 46.55 40.53 33.03 48.25 24.8 41.24 24.8 34.02 33.23"/><path class="cls-3" d="M48.5,25a21.54,21.54,0,0,1-4.38,0,1.52,1.52,0,0,1-.28,0c-7-2-8.8-5.5-13.58-8.39-4.53-2.74-15-5.28-25.53,1.75A17.6,17.6,0,0,1,9.5,23.94c2.23,4,1.11,6.58,1.11,6.58s6.17-6.43,13.34-6.7C30,23.59,37,25.95,42.58,26.56a20.47,20.47,0,0,0,2.93.14c5.85-.21,8.09-3.57,8.09-3.57S52.16,24.63,48.5,25Z"/><path class="cls-4" d="M9.29,23.55c.29-.33.57-.63.86-.92C9.86,22.91,9.57,23.22,9.29,23.55Z"/><path class="cls-5" d="M26,19.3c8.57,2.28,10.46,5.58,17.43,5.53a9.16,9.16,0,0,0-1.33-.67c-3.23-.61-5.31-3.89-11.76-7.62A23,23,0,0,0,4.86,18.2a.12.12,0,0,0,0,.19,15.14,15.14,0,0,1,4.44,5.15c.29-.33.57-.63.86-.92C15.71,16.88,21,18,26,19.3Z"/><path class="cls-6" d="M49.2,24.27a14.11,14.11,0,0,1-4.39.24C37.87,24,33,20.72,26.57,18.63c-4.93-1.59-10.87-1.75-16.43,4-.29.29-.57.59-.86.92l.09.17a9.47,9.47,0,0,1,1.47,6S17,23.67,24.09,23.41c6-.21,13,2,18.54,2.6a20.89,20.89,0,0,0,2.91.13c5.82-.2,8.14-3.24,8.14-3.24S52.95,23.63,49.2,24.27Z"/><rect class="cls-7" x="53.94" y="24.83" width="0.66" height="21.45"/><path class="cls-8" d="M63.27,28.33A2.46,2.46,0,0,1,60.74,31a2.41,2.41,0,0,1-2.46-2.59,2.49,2.49,0,0,1,2.54-2.68A2.39,2.39,0,0,1,63.27,28.33ZM59,28.42a1.86,1.86,0,0,0,1.74,2.07c1.12,0,1.75-1,1.75-2.12a1.87,1.87,0,0,0-1.74-2.07C59.62,26.29,59,27.3,59,28.42Z"/><path class="cls-8" d="M64.84,26.4H63.18v-.56h4v.56H65.56v4.54h-.71Z"/><path class="cls-8" d="M72.1,28.33A2.46,2.46,0,0,1,69.57,31a2.41,2.41,0,0,1-2.46-2.59,2.49,2.49,0,0,1,2.54-2.68A2.39,2.39,0,0,1,72.1,28.33Zm-4.24.08a1.86,1.86,0,0,0,1.74,2.07c1.12,0,1.75-1,1.75-2.12a1.87,1.87,0,0,0-1.74-2.07C68.45,26.29,67.87,27.3,67.87,28.42Z"/><path class="cls-8" d="M72.84,25.91a7.9,7.9,0,0,1,1.35-.11,2.34,2.34,0,0,1,1.58.42,1.23,1.23,0,0,1,.43,1,1.36,1.36,0,0,1-1,1.3v0a1.29,1.29,0,0,1,.8,1,7.69,7.69,0,0,0,.42,1.4h-.73a6.25,6.25,0,0,1-.36-1.22c-.16-.7-.45-1-1.09-1h-.66v2.21h-.71Zm.71,2.32h.72c.75,0,1.23-.39,1.23-1s-.51-.95-1.26-1a3.1,3.1,0,0,0-.7.06Z"/><path class="cls-8" d="M77.73,25.84v5.1H77v-5.1Z"/><path class="cls-8" d="M79.81,26.4H78.15v-.56h4v.56H80.53v4.54h-.71Z"/><path class="cls-8" d="M82.9,29.33l-.57,1.6H81.6l1.86-5.1h.85l1.86,5.1h-.75l-.58-1.6Zm1.79-.51-.53-1.47c-.12-.33-.2-.64-.28-.93h0c-.08.3-.17.61-.28.92L83,28.82Z"/><path class="cls-8" d="M86.7,30.14a2.64,2.64,0,0,0,1.26.33c.72,0,1.14-.36,1.14-.87s-.29-.75-1-1c-.89-.29-1.44-.73-1.44-1.45s.71-1.38,1.77-1.38a2.62,2.62,0,0,1,1.21.25l-.19.54a2.29,2.29,0,0,0-1-.24c-.75,0-1,.42-1,.76s.33.71,1.09,1c.92.33,1.39.75,1.39,1.5S89.2,31,87.92,31a3,3,0,0,1-1.39-.33Z"/><path class="cls-8" d="M59.72,33h.71v3.41c0,1.36-.71,1.77-1.65,1.77a2.45,2.45,0,0,1-.75-.12l.11-.54a1.8,1.8,0,0,0,.59.1c.63,0,1-.26,1-1.26Z"/><path class="cls-8" d="M62.31,36.5l-.57,1.6H61L62.87,33h.85l1.86,5.1h-.75l-.58-1.6ZM64.1,36l-.53-1.47c-.12-.33-.2-.64-.28-.93h0c-.08.3-.17.61-.28.92L62.45,36Z"/><path class="cls-8" d="M66.11,37.3a2.64,2.64,0,0,0,1.26.33c.72,0,1.14-.36,1.14-.87s-.29-.75-1-1C66.59,35.45,66,35,66,34.3s.71-1.38,1.77-1.38a2.62,2.62,0,0,1,1.21.25l-.19.54a2.29,2.29,0,0,0-1-.24c-.75,0-1,.42-1,.76s.33.71,1.09,1c.92.33,1.39.75,1.39,1.5s-.62,1.47-1.91,1.47a3,3,0,0,1-1.39-.33Z"/><path class="cls-8" d="M70.9,36.5l-.57,1.6H69.6L71.46,33h.85l1.86,5.1h-.75l-.58-1.6ZM72.69,36l-.53-1.47c-.12-.33-.2-.64-.28-.93h0c-.08.3-.17.61-.28.92L71,36Z"/><path class="cls-8" d="M58.6,40.17h.71v2.46h0c.15-.2.29-.38.43-.54l1.67-1.91h.88l-2,2.16,2.13,2.94h-.83l-1.8-2.5-.52.56v1.95H58.6Z"/><path class="cls-8" d="M65.64,42.88H63.52v1.84h2.37v.55H62.82v-5.1h3v.55H63.52v1.61h2.12Z"/><path class="cls-8" d="M67.33,40.17v3c0,1.14.54,1.63,1.27,1.63s1.33-.5,1.33-1.63v-3h.71v3a1.93,1.93,0,0,1-2.07,2.21c-1.12,0-2-.6-2-2.18v-3Z"/><path class="cls-8" d="M72.29,43.66l-.57,1.6H71l1.86-5.1h.85l1.86,5.1h-.75l-.58-1.6Zm1.79-.51-.53-1.47c-.12-.33-.2-.64-.28-.93h0c-.08.3-.17.61-.28.92l-.53,1.48Z"/><path class="cls-8" d="M76.19,45.27v-5.1H77l1.75,2.58a14.23,14.23,0,0,1,1,1.66h0c-.06-.68-.08-1.3-.08-2.1V40.17h.66v5.1h-.71l-1.73-2.59a15.79,15.79,0,0,1-1-1.7h0c0,.64.06,1.26.06,2.1v2.18Z"/><path class="cls-8" d="M85.5,45a5.43,5.43,0,0,1-1.68.28,2.93,2.93,0,0,1-2-.67,2.53,2.53,0,0,1-.76-1.9,2.66,2.66,0,0,1,3-2.63,3.57,3.57,0,0,1,1.36.23l-.17.54A3,3,0,0,0,84,40.67a2,2,0,0,0-2.2,2.05,1.93,1.93,0,0,0,2.11,2.06,2.43,2.43,0,0,0,.94-.14V43.12H83.7v-.53h1.8Z"/><path class="cls-8" d="M87.28,43.66l-.57,1.6H86l1.86-5.1h.85l1.86,5.1H89.8l-.58-1.6Zm1.79-.51-.53-1.47c-.12-.33-.2-.64-.28-.93h0c-.08.3-.17.61-.28.92l-.53,1.48Z"/><path class="cls-8" d="M91.18,45.27v-5.1h.77l1.75,2.58a14.23,14.23,0,0,1,1,1.66h0c-.06-.68-.08-1.3-.08-2.1V40.17h.66v5.1h-.71l-1.73-2.59a15.79,15.79,0,0,1-1-1.7h0c0,.64.06,1.26.06,2.1v2.18Z"/></svg>